{"asset":{"version":"2.0","generator":"VECTARY"},"nodes":[{"translation":[0,-0.0375,-7.105427357601002e-18],"scale":[0.00075,0.00075,0.00075],"rotation":[-0.7071067811865475,0,0,0.7071067811865476],"name":"Object 8","mesh":0},{"translation":[-0.039270086041207235,0.5096825947553012,-0.021485575823198558],"scale":[1,1,1],"rotation":[-0.7071067811865475,5.551115123125783e-17,0,0.7071067811865475],"name":"Camera","camera":0}],"materials":[{"pbrMetallicRoughness":{"baseColorFactor":[0.9743002023888613,1,0.04777575355617064,1],"metallicFactor":0.05,"roughnessFactor":0.1},"name":"Sun yellow glossy","emissiveFactor":[0,0,0],"alphaMode":"OPAQUE","doubleSided":false}],"meshes":[{"primitives":[{"mode":4,"attributes":{"POSITION":1,"NORMAL":2,"TEXCOORD_0":3},"material":0,"indices":0}]}],"accessors":[{"bufferView":0,"byteOffset":0,"componentType":5125,"count":2280,"type":"SCALAR"},{"bufferView":1,"byteOffset":0,"componentType":5126,"count":2280,"max":[50,50,100],"min":[-50,-50,0],"type":"VEC3"},{"bufferView":2,"byteOffset":0,"componentType":5126,"count":2280,"type":"VEC3"},{"bufferView":3,"byteOffset":0,"componentType":5126,"count":2280,"type":"VEC2"}],"bufferViews":[{"buffer":0,"byteOffset":0,"byteLength":9120,"target":34963},{"buffer":0,"byteOffset":9120,"byteLength":27360,"target":34962},{"buffer":0,"byteOffset":36480,"byteLength":27360,"target":34962},{"buffer":0,"byteOffset":63840,"byteLength":18240,"target":34962}],"cameras":[{"name":"Camera","type":"orthographic","extras":{"targetDistance":0.45037460694643444},"orthographic":{"xmag":0.45672400162881954,"ymag":0.28400513622411805,"zfar":37.07794285825033,"znear":0.0027527362407151657}}],"scene":0,"scenes":[{"nodes":[0,1],"name":"SunSphere"}],"extensionsUsed":["KHR_texture_transform"],"buffers":[{"byteLength":82080,"uri":"SunSphere.bin"}]}