{"asset":{"version":"2.0","generator":"VECTARY"},"nodes":[{"translation":[0.0043,0.001,2.220446049250313e-19],"scale":[0.001,0.001,0.001],"rotation":[-0.7071067811865475,0,0,0.7071067811865476],"name":"Object 3","mesh":0},{"translation":[0.5082333526780662,0.23858895034298094,-0.08563052373978534],"scale":[1,1,1],"rotation":[-0.12566987755580789,0.7923802280855036,0.17442626975935915,0.5708906484013458],"name":"Camera","camera":0}],"materials":[{"pbrMetallicRoughness":{"baseColorFactor":[1,1,1,1],"baseColorTexture":{"index":0,"extensions":{"KHR_texture_transform":{"offset":[0,0],"scale":[3,3]}},"texCoord":0},"metallicFactor":0,"roughnessFactor":0.2},"name":"African Black Wood","emissiveFactor":[0,0,0],"alphaMode":"OPAQUE","doubleSided":false}],"textures":[{"sampler":0,"source":0}],"images":[{"uri":"66a2bb19-1426-4d7c-b492-14fc06e954c8.jpg","mimeType":"image/jpeg"}],"samplers":[{"wrapS":10497,"wrapT":10497}],"meshes":[{"primitives":[{"mode":4,"attributes":{"POSITION":1,"NORMAL":2,"TEXCOORD_0":3},"material":0,"indices":0}]}],"accessors":[{"bufferView":0,"byteOffset":0,"componentType":5125,"count":10440,"type":"SCALAR"},{"bufferView":1,"byteOffset":0,"componentType":5126,"count":10440,"max":[52.58208084106445,52.58208084106445,6],"min":[-52.58208084106445,-52.58208084106445,0],"type":"VEC3"},{"bufferView":2,"byteOffset":0,"componentType":5126,"count":10440,"type":"VEC3"},{"bufferView":3,"byteOffset":0,"componentType":5126,"count":10440,"type":"VEC2"}],"bufferViews":[{"buffer":0,"byteOffset":0,"byteLength":41760,"target":34963},{"buffer":0,"byteOffset":41760,"byteLength":125280,"target":34962},{"buffer":0,"byteOffset":167040,"byteLength":125280,"target":34962},{"buffer":0,"byteOffset":292320,"byteLength":83520,"target":34962}],"cameras":[{"name":"Camera","type":"perspective","extras":{"targetDistance":0.5255254791517023},"perspective":{"aspectRatio":1.608154020385051,"yfov":0.6108652381980153,"zfar":39.933961603925084,"znear":0.003045853954087048}}],"scene":0,"scenes":[{"nodes":[0,1],"name":"RingFour"}],"extensionsUsed":["KHR_texture_transform"],"buffers":[{"byteLength":375840,"uri":"RingFour.bin"}]}