{"asset":{"version":"2.0","generator":"VECTARY"},"nodes":[{"translation":[0,-1.8184657819656813e-18,-3.944304526105059e-34],"scale":[0.00045000000000000004,0.00045000000000000004,0.00045000000000000004],"rotation":[-0.7071067811865475,0,0,0.7071067811865476],"name":"Blackhole","children":[1]},{"translation":[0.0000152587890625,0,57.00720294097475],"scale":[1,1,1],"rotation":[0,0,0,1],"name":"RootNode (model correction matrix)","children":[2]},{"translation":[0,0,0],"scale":[1,1,1],"rotation":[0.7071067811865475,0,0,0.7071067811865476],"name":"415c209837844e7b91255101a7c3eb67.fbx","children":[3]},{"translation":[0,0,0],"scale":[1,1,1],"rotation":[0,0,0,1],"name":"Group","children":[4]},{"translation":[0,0,0],"scale":[1,1,1],"rotation":[0,0,0,1],"name":"RootNode","children":[5,7,9,11,13,15,17,19,21,23,25,27,29,31,33,35]},{"translation":[0,0,0],"scale":[0.9679999947547913,0.9680001248141723,0.9680001248141723],"rotation":[-0.7071068286895689,0,0,0.7071067336835231],"name":"Blackhole_core","children":[6]},{"translation":[0,0,0],"scale":[1,1,1],"rotation":[0,0,0,1],"name":"Blackhole_core_Blackhole_core_0","mesh":0},{"translation":[0,0,0],"scale":[0.9593479633331299,0.9593480922300339,0.9593480922300339],"rotation":[-0.7071068286895689,0,0,0.7071067336835231],"name":"Blackhole_skin_001","children":[8]},{"translation":[0,0,0],"scale":[1,1,1],"rotation":[0,0,0,1],"name":"Blackhole_skin_001_Blackhole_skin_0","mesh":1},{"translation":[0,0,0],"scale":[0.9573858976364136,0.9573860262696967,0.9573860262696967],"rotation":[-0.7071068286895689,0,0,0.7071067336835231],"name":"Blackhole_skin_002","children":[10]},{"translation":[0,0,0],"scale":[1,1,1],"rotation":[0,0,0,1],"name":"Blackhole_skin_002_Blackhole_core_0","mesh":2},{"translation":[0,0,0],"scale":[0.9104211926460266,0.9104213149691852,0.9104213149691852],"rotation":[-0.7071068286895688,0,0,0.7071067336835231],"name":"Blackhole_skin_003","children":[12]},{"translation":[0,0,0],"scale":[1,1,1],"rotation":[0,0,0,1],"name":"Blackhole_skin_003_Blackhole_skin_0","mesh":3},{"translation":[0,0,0],"scale":[0.9084237217903137,0.9084238438450944,0.9084238438450944],"rotation":[-0.7071068286895688,0,0,0.7071067336835231],"name":"Blackhole_skin_004","children":[14]},{"translation":[0,0,0],"scale":[1,1,1],"rotation":[0,0,0,1],"name":"Blackhole_skin_004_Blackhole_core_0","mesh":4},{"translation":[0,0,0],"scale":[0.900446950612595,0.9004469495678425,0.9004469495678425],"rotation":[-0.6272113914833882,0.3265055411923103,0.32650554157114153,0.6272113936369906],"name":"Blackhole_skin_005","children":[16]},{"translation":[0,0,0],"scale":[1,1,1],"rotation":[0,0,0,1],"name":"Blackhole_skin_005_Blackhole_skin_0","mesh":5},{"translation":[0,0,0],"scale":[0.8642488960319554,0.86424890654112,0.86424890654112],"rotation":[0.37992824448083623,0.5963677899271442,0.596367780019771,-0.37992823986095364],"name":"Blackhole_skin_006","children":[18]},{"translation":[0,0,0],"scale":[1,1,1],"rotation":[0,0,0,1],"name":"Blackhole_skin_006_Blackhole_skin_inner_0","mesh":6},{"translation":[0,0,0],"scale":[0.8663230183759503,0.866323028910336,0.866323028910336],"rotation":[0.37992824448083623,0.5963677899271442,0.596367780019771,-0.37992823986095364],"name":"Blackhole_skin_007","children":[20]},{"translation":[0,0,0],"scale":[1,1,1],"rotation":[0,0,0,1],"name":"Blackhole_skin_007_Blackhole_core_0","mesh":7},{"translation":[0,0,0],"scale":[1,1.0000001343588654,1.0000001343588654],"rotation":[-0.7071068286895689,0,0,0.7071067336835231],"name":"Blackhole_core001","children":[22]},{"translation":[0,0,0],"scale":[1,1,1],"rotation":[0,0,0,1],"name":"Blackhole_core001_Blackhole_core_0","mesh":8},{"translation":[0,0,0],"scale":[0.8446429967507441,0.844642986990847,0.8446429869908468],"rotation":[-0.7064337730173711,0.030843451261728765,0.03084345161812657,0.7064337812582343],"name":"Blackhole_skin_008","children":[24]},{"translation":[0,0,0],"scale":[1,1,1],"rotation":[0,0,0,1],"name":"Blackhole_skin_008_Blackhole_skin_inner_0","mesh":9},{"translation":[0,0,0],"scale":[0.8871202574155229,0.8871203051035321,0.887120305103532],"rotation":[-0.6743797125843026,-0.21263125387264,-0.21263124244244147,0.6743796559257509],"name":"Blackhole_skin_009","children":[26]},{"translation":[0,0,0],"scale":[1,1,1],"rotation":[0,0,0,1],"name":"Blackhole_skin_009_Blackhole_skin_0","mesh":10},{"translation":[0,0,0],"scale":[0.9289413633217058,0.9289412585458473,0.9289412585458473],"rotation":[0.2126310949099834,0.6743797111625953,0.6743797279555352,-0.21263111889277597],"name":"Blackhole_skin_010","children":[28]},{"translation":[0,0,0],"scale":[1,1,1],"rotation":[0,0,0,1],"name":"Blackhole_skin_010_Blackhole_skin_0","mesh":11},{"translation":[0,0,0],"scale":[0.9281910216606456,0.9281909073331603,0.9281909073331605],"rotation":[0.21263110601255442,0.6743797061162663,0.6743797244549081,-0.2126311322028343],"name":"Blackhole_skin_011","children":[30]},{"translation":[0,0,0],"scale":[1,1,1],"rotation":[0,0,0,1],"name":"Blackhole_skin_011_Blackhole_core_0","mesh":12},{"translation":[0,0,0],"scale":[0.8558670277257443,0.8558670080277437,0.8558670080277437],"rotation":[-0.3535533641996602,0.6123724368402456,0.6123724509341536,0.3535533723367823],"name":"Blackhole_skin_012","children":[32]},{"translation":[0,0,0],"scale":[1,1,1],"rotation":[0,0,0,1],"name":"Blackhole_skin_012_Blackhole_skin_inner_0","mesh":13},{"translation":[0,0,0],"scale":[0.8348331682125341,0.8348331567653632,0.8348331567653632],"rotation":[0.06162835529536453,0.7044160316273806,0.7044160317763845,-0.06162835614040801],"name":"Blackhole_skin_013","children":[34]},{"translation":[0,0,0],"scale":[1,1,1],"rotation":[0,0,0,1],"name":"Blackhole_skin_013_Blackhole_ring2_0","mesh":14},{"translation":[0,0,0],"scale":[0.9280216097831726,0.9280217344711033,0.9280217344711033],"rotation":[-0.7071068286895689,0,0,0.7071067336835231],"name":"Blackhole_core002","children":[36]},{"translation":[0,0,0],"scale":[1,1,1],"rotation":[0,0,0,1],"name":"Blackhole_core002_Blackhole_ring2_0","mesh":15},{"translation":[-0.5825192458100903,0.3845289427713417,0.15034899544725203],"scale":[1,1,1],"rotation":[-0.22178191162310096,-0.5878149133010965,-0.1718077577821953,0.7587941128814075],"name":"Camera","camera":0}],"materials":[{"pbrMetallicRoughness":{"baseColorFactor":[0,0,0,1],"metallicFactor":1,"roughnessFactor":1},"name":"Material","emissiveFactor":[0,0,0],"alphaMode":"OPAQUE","doubleSided":false},{"pbrMetallicRoughness":{"baseColorFactor":[1,1,1,1],"metallicFactor":0,"roughnessFactor":1},"name":"Material 2","emissiveTexture":{"index":0,"extensions":{"KHR_texture_transform":{"offset":[0,0],"scale":[1,1],"rotation":0}},"texCoord":0},"emissiveFactor":[1,1,1],"alphaMode":"OPAQUE","doubleSided":false},{"pbrMetallicRoughness":{"baseColorFactor":[1,1,1,1],"metallicFactor":0,"roughnessFactor":1},"name":"Material 3","emissiveTexture":{"index":1,"extensions":{"KHR_texture_transform":{"offset":[0,0],"scale":[1,1],"rotation":0}},"texCoord":0},"emissiveFactor":[1,1,1],"alphaMode":"OPAQUE","doubleSided":false},{"pbrMetallicRoughness":{"baseColorFactor":[1,1,1,1],"metallicFactor":0,"roughnessFactor":1},"name":"Material 4","emissiveTexture":{"index":2,"extensions":{"KHR_texture_transform":{"offset":[0,0],"scale":[1,1],"rotation":0}},"texCoord":0},"emissiveFactor":[1,1,1],"alphaMode":"OPAQUE","doubleSided":false}],"meshes":[{"primitives":[{"mode":4,"attributes":{"POSITION":1,"NORMAL":2,"TEXCOORD_0":3},"material":0,"indices":0}]},{"primitives":[{"mode":4,"attributes":{"POSITION":5,"NORMAL":6,"TEXCOORD_0":7},"material":1,"indices":4}]},{"primitives":[{"mode":4,"attributes":{"POSITION":9,"NORMAL":10,"TEXCOORD_0":11},"material":0,"indices":8}]},{"primitives":[{"mode":4,"attributes":{"POSITION":13,"NORMAL":14,"TEXCOORD_0":15},"material":1,"indices":12}]},{"primitives":[{"mode":4,"attributes":{"POSITION":17,"NORMAL":18,"TEXCOORD_0":19},"material":0,"indices":16}]},{"primitives":[{"mode":4,"attributes":{"POSITION":21,"NORMAL":22,"TEXCOORD_0":23},"material":1,"indices":20}]},{"primitives":[{"mode":4,"attributes":{"POSITION":25,"NORMAL":26,"TEXCOORD_0":27},"material":2,"indices":24}]},{"primitives":[{"mode":4,"attributes":{"POSITION":29,"NORMAL":30,"TEXCOORD_0":31},"material":0,"indices":28}]},{"primitives":[{"mode":4,"attributes":{"POSITION":33,"NORMAL":34,"TEXCOORD_0":35},"material":0,"indices":32}]},{"primitives":[{"mode":4,"attributes":{"POSITION":37,"NORMAL":38,"TEXCOORD_0":39},"material":2,"indices":36}]},{"primitives":[{"mode":4,"attributes":{"POSITION":41,"NORMAL":42,"TEXCOORD_0":43},"material":1,"indices":40}]},{"primitives":[{"mode":4,"attributes":{"POSITION":45,"NORMAL":46,"TEXCOORD_0":47},"material":1,"indices":44}]},{"primitives":[{"mode":4,"attributes":{"POSITION":49,"NORMAL":50,"TEXCOORD_0":51},"material":0,"indices":48}]},{"primitives":[{"mode":4,"attributes":{"POSITION":53,"NORMAL":54,"TEXCOORD_0":55},"material":2,"indices":52}]},{"primitives":[{"mode":4,"attributes":{"POSITION":57,"NORMAL":58,"TEXCOORD_0":59},"material":3,"indices":56}]},{"primitives":[{"mode":4,"attributes":{"POSITION":61,"NORMAL":62,"TEXCOORD_0":63},"material":3,"indices":60}]}],"accessors":[{"bufferView":0,"byteOffset":0,"componentType":5125,"count":11904,"type":"SCALAR"},{"bufferView":1,"byteOffset":0,"componentType":5126,"count":11904,"max":[46.400001525878906,46.400001525878906,46.400001525878906],"min":[-46.400001525878906,-46.400001525878906,-46.400001525878906],"type":"VEC3"},{"bufferView":2,"byteOffset":0,"componentType":5126,"count":11904,"type":"VEC3"},{"bufferView":3,"byteOffset":0,"componentType":5126,"count":11904,"type":"VEC2"},{"bufferView":4,"byteOffset":0,"componentType":5125,"count":51456,"type":"SCALAR"},{"bufferView":5,"byteOffset":0,"componentType":5126,"count":51456,"max":[66.30809020996094,66.30809020996094,59.422855377197266],"min":[-66.30810546875,-66.30809020996094,-59.422855377197266],"type":"VEC3"},{"bufferView":6,"byteOffset":0,"componentType":5126,"count":51456,"type":"VEC3"},{"bufferView":7,"byteOffset":0,"componentType":5126,"count":51456,"type":"VEC2"},{"bufferView":8,"byteOffset":0,"componentType":5125,"count":51456,"type":"SCALAR"},{"bufferView":9,"byteOffset":0,"componentType":5126,"count":51456,"max":[63.93594741821289,63.935935974121094,59.422855377197266],"min":[-63.935951232910156,-63.93594741821289,-59.422855377197266],"type":"VEC3"},{"bufferView":10,"byteOffset":0,"componentType":5126,"count":51456,"type":"VEC3"},{"bufferView":11,"byteOffset":0,"componentType":5126,"count":51456,"type":"VEC2"},{"bufferView":12,"byteOffset":0,"componentType":5125,"count":51456,"type":"SCALAR"},{"bufferView":13,"byteOffset":0,"componentType":5126,"count":51456,"max":[65.33975219726562,65.33973693847656,59.422855377197266],"min":[-65.3397445678711,-65.33973693847656,-59.422855377197266],"type":"VEC3"},{"bufferView":14,"byteOffset":0,"componentType":5126,"count":51456,"type":"VEC3"},{"bufferView":15,"byteOffset":0,"componentType":5126,"count":51456,"type":"VEC2"},{"bufferView":16,"byteOffset":0,"componentType":5125,"count":51456,"type":"SCALAR"},{"bufferView":17,"byteOffset":0,"componentType":5126,"count":51456,"max":[63.859222412109375,63.859214782714844,59.422855377197266],"min":[-63.859230041503906,-63.859222412109375,-59.422855377197266],"type":"VEC3"},{"bufferView":18,"byteOffset":0,"componentType":5126,"count":51456,"type":"VEC3"},{"bufferView":19,"byteOffset":0,"componentType":5126,"count":51456,"type":"VEC2"},{"bufferView":20,"byteOffset":0,"componentType":5125,"count":51456,"type":"SCALAR"},{"bufferView":21,"byteOffset":0,"componentType":5126,"count":51456,"max":[64.28119659423828,64.28118896484375,59.422855377197266],"min":[-64.28120422363281,-64.28119659423828,-59.422855377197266],"type":"VEC3"},{"bufferView":22,"byteOffset":0,"componentType":5126,"count":51456,"type":"VEC3"},{"bufferView":23,"byteOffset":0,"componentType":5126,"count":51456,"type":"VEC2"},{"bufferView":24,"byteOffset":0,"componentType":5125,"count":51456,"type":"SCALAR"},{"bufferView":25,"byteOffset":0,"componentType":5126,"count":51456,"max":[63.93594741821289,63.935935974121094,59.422855377197266],"min":[-63.935951232910156,-63.93594741821289,-59.422855377197266],"type":"VEC3"},{"bufferView":26,"byteOffset":0,"componentType":5126,"count":51456,"type":"VEC3"},{"bufferView":27,"byteOffset":0,"componentType":5126,"count":51456,"type":"VEC2"},{"bufferView":28,"byteOffset":0,"componentType":5125,"count":51456,"type":"SCALAR"},{"bufferView":29,"byteOffset":0,"componentType":5126,"count":51456,"max":[63.93594741821289,63.935935974121094,59.422855377197266],"min":[-63.935951232910156,-63.93594741821289,-59.422855377197266],"type":"VEC3"},{"bufferView":30,"byteOffset":0,"componentType":5126,"count":51456,"type":"VEC3"},{"bufferView":31,"byteOffset":0,"componentType":5126,"count":51456,"type":"VEC2"},{"bufferView":32,"byteOffset":0,"componentType":5125,"count":48384,"type":"SCALAR"},{"bufferView":33,"byteOffset":0,"componentType":5126,"count":48384,"max":[49.391273498535156,49.39126968383789,48.71384048461914],"min":[-49.39126968383789,-49.39126968383789,-48.71384048461914],"type":"VEC3"},{"bufferView":34,"byteOffset":0,"componentType":5126,"count":48384,"type":"VEC3"},{"bufferView":35,"byteOffset":0,"componentType":5126,"count":48384,"type":"VEC2"},{"bufferView":36,"byteOffset":0,"componentType":5125,"count":48384,"type":"SCALAR"},{"bufferView":37,"byteOffset":0,"componentType":5126,"count":48384,"max":[62.209678649902344,62.20966339111328,59.422855377197266],"min":[-62.20967483520508,-62.209678649902344,-59.422855377197266],"type":"VEC3"},{"bufferView":38,"byteOffset":0,"componentType":5126,"count":48384,"type":"VEC3"},{"bufferView":39,"byteOffset":0,"componentType":5126,"count":48384,"type":"VEC2"},{"bufferView":40,"byteOffset":0,"componentType":5125,"count":51456,"type":"SCALAR"},{"bufferView":41,"byteOffset":0,"componentType":5126,"count":51456,"max":[63.93594741821289,63.935935974121094,59.422855377197266],"min":[-63.935951232910156,-63.93594741821289,-59.422855377197266],"type":"VEC3"},{"bufferView":42,"byteOffset":0,"componentType":5126,"count":51456,"type":"VEC3"},{"bufferView":43,"byteOffset":0,"componentType":5126,"count":51456,"type":"VEC2"},{"bufferView":44,"byteOffset":0,"componentType":5125,"count":51456,"type":"SCALAR"},{"bufferView":45,"byteOffset":0,"componentType":5126,"count":51456,"max":[65.7876205444336,65.78761291503906,59.422855377197266],"min":[-65.78761291503906,-65.78761291503906,-59.422855377197266],"type":"VEC3"},{"bufferView":46,"byteOffset":0,"componentType":5126,"count":51456,"type":"VEC3"},{"bufferView":47,"byteOffset":0,"componentType":5126,"count":51456,"type":"VEC2"},{"bufferView":48,"byteOffset":0,"componentType":5125,"count":51456,"type":"SCALAR"},{"bufferView":49,"byteOffset":0,"componentType":5126,"count":51456,"max":[64.24256896972656,64.24256896972656,59.422855377197266],"min":[-64.24256896972656,-64.2425537109375,-59.422855377197266],"type":"VEC3"},{"bufferView":50,"byteOffset":0,"componentType":5126,"count":51456,"type":"VEC3"},{"bufferView":51,"byteOffset":0,"componentType":5126,"count":51456,"type":"VEC2"},{"bufferView":52,"byteOffset":0,"componentType":5125,"count":48384,"type":"SCALAR"},{"bufferView":53,"byteOffset":0,"componentType":5126,"count":48384,"max":[62.209678649902344,62.20966339111328,59.422855377197266],"min":[-62.20967483520508,-62.209678649902344,-59.422855377197266],"type":"VEC3"},{"bufferView":54,"byteOffset":0,"componentType":5126,"count":48384,"type":"VEC3"},{"bufferView":55,"byteOffset":0,"componentType":5126,"count":48384,"type":"VEC2"},{"bufferView":56,"byteOffset":0,"componentType":5125,"count":11904,"type":"SCALAR"},{"bufferView":57,"byteOffset":0,"componentType":5126,"count":11904,"max":[61.10124969482422,61.101234436035156,59.43033218383789],"min":[-61.10124588012695,-61.10124969482422,-59.43033218383789],"type":"VEC3"},{"bufferView":58,"byteOffset":0,"componentType":5126,"count":11904,"type":"VEC3"},{"bufferView":59,"byteOffset":0,"componentType":5126,"count":11904,"type":"VEC2"},{"bufferView":60,"byteOffset":0,"componentType":5125,"count":11904,"type":"SCALAR"},{"bufferView":61,"byteOffset":0,"componentType":5126,"count":11904,"max":[48.720001220703125,48.720001220703125,48.720001220703125],"min":[-48.720001220703125,-48.720001220703125,-48.720001220703125],"type":"VEC3"},{"bufferView":62,"byteOffset":0,"componentType":5126,"count":11904,"type":"VEC3"},{"bufferView":63,"byteOffset":0,"componentType":5126,"count":11904,"type":"VEC2"}],"bufferViews":[{"buffer":0,"byteOffset":0,"byteLength":47616,"target":34963},{"buffer":0,"byteOffset":47616,"byteLength":142848,"target":34962},{"buffer":0,"byteOffset":190464,"byteLength":142848,"target":34962},{"buffer":0,"byteOffset":333312,"byteLength":95232,"target":34962},{"buffer":0,"byteOffset":428544,"byteLength":205824,"target":34963},{"buffer":0,"byteOffset":634368,"byteLength":617472,"target":34962},{"buffer":0,"byteOffset":1251840,"byteLength":617472,"target":34962},{"buffer":0,"byteOffset":1869312,"byteLength":411648,"target":34962},{"buffer":0,"byteOffset":2280960,"byteLength":205824,"target":34963},{"buffer":0,"byteOffset":2486784,"byteLength":617472,"target":34962},{"buffer":0,"byteOffset":3104256,"byteLength":617472,"target":34962},{"buffer":0,"byteOffset":3721728,"byteLength":411648,"target":34962},{"buffer":0,"byteOffset":4133376,"byteLength":205824,"target":34963},{"buffer":0,"byteOffset":4339200,"byteLength":617472,"target":34962},{"buffer":0,"byteOffset":4956672,"byteLength":617472,"target":34962},{"buffer":0,"byteOffset":5574144,"byteLength":411648,"target":34962},{"buffer":0,"byteOffset":5985792,"byteLength":205824,"target":34963},{"buffer":0,"byteOffset":6191616,"byteLength":617472,"target":34962},{"buffer":0,"byteOffset":6809088,"byteLength":617472,"target":34962},{"buffer":0,"byteOffset":7426560,"byteLength":411648,"target":34962},{"buffer":0,"byteOffset":7838208,"byteLength":205824,"target":34963},{"buffer":0,"byteOffset":8044032,"byteLength":617472,"target":34962},{"buffer":0,"byteOffset":8661504,"byteLength":617472,"target":34962},{"buffer":0,"byteOffset":9278976,"byteLength":411648,"target":34962},{"buffer":0,"byteOffset":9690624,"byteLength":205824,"target":34963},{"buffer":0,"byteOffset":9896448,"byteLength":617472,"target":34962},{"buffer":0,"byteOffset":10513920,"byteLength":617472,"target":34962},{"buffer":0,"byteOffset":11131392,"byteLength":411648,"target":34962},{"buffer":0,"byteOffset":11543040,"byteLength":205824,"target":34963},{"buffer":0,"byteOffset":11748864,"byteLength":617472,"target":34962},{"buffer":0,"byteOffset":12366336,"byteLength":617472,"target":34962},{"buffer":0,"byteOffset":12983808,"byteLength":411648,"target":34962},{"buffer":0,"byteOffset":13395456,"byteLength":193536,"target":34963},{"buffer":0,"byteOffset":13588992,"byteLength":580608,"target":34962},{"buffer":0,"byteOffset":14169600,"byteLength":580608,"target":34962},{"buffer":0,"byteOffset":14750208,"byteLength":387072,"target":34962},{"buffer":0,"byteOffset":15137280,"byteLength":193536,"target":34963},{"buffer":0,"byteOffset":15330816,"byteLength":580608,"target":34962},{"buffer":0,"byteOffset":15911424,"byteLength":580608,"target":34962},{"buffer":0,"byteOffset":16492032,"byteLength":387072,"target":34962},{"buffer":0,"byteOffset":16879104,"byteLength":205824,"target":34963},{"buffer":0,"byteOffset":17084928,"byteLength":617472,"target":34962},{"buffer":0,"byteOffset":17702400,"byteLength":617472,"target":34962},{"buffer":0,"byteOffset":18319872,"byteLength":411648,"target":34962},{"buffer":0,"byteOffset":18731520,"byteLength":205824,"target":34963},{"buffer":0,"byteOffset":18937344,"byteLength":617472,"target":34962},{"buffer":0,"byteOffset":19554816,"byteLength":617472,"target":34962},{"buffer":0,"byteOffset":20172288,"byteLength":411648,"target":34962},{"buffer":0,"byteOffset":20583936,"byteLength":205824,"target":34963},{"buffer":0,"byteOffset":20789760,"byteLength":617472,"target":34962},{"buffer":0,"byteOffset":21407232,"byteLength":617472,"target":34962},{"buffer":0,"byteOffset":22024704,"byteLength":411648,"target":34962},{"buffer":0,"byteOffset":22436352,"byteLength":193536,"target":34963},{"buffer":0,"byteOffset":22629888,"byteLength":580608,"target":34962},{"buffer":0,"byteOffset":23210496,"byteLength":580608,"target":34962},{"buffer":0,"byteOffset":23791104,"byteLength":387072,"target":34962},{"buffer":0,"byteOffset":24178176,"byteLength":47616,"target":34963},{"buffer":0,"byteOffset":24225792,"byteLength":142848,"target":34962},{"buffer":0,"byteOffset":24368640,"byteLength":142848,"target":34962},{"buffer":0,"byteOffset":24511488,"byteLength":95232,"target":34962},{"buffer":0,"byteOffset":24606720,"byteLength":47616,"target":34963},{"buffer":0,"byteOffset":24654336,"byteLength":142848,"target":34962},{"buffer":0,"byteOffset":24797184,"byteLength":142848,"target":34962},{"buffer":0,"byteOffset":24940032,"byteLength":95232,"target":34962}],"textures":[{"sampler":0,"source":0},{"sampler":0,"source":1},{"sampler":0,"source":2}],"images":[{"uri":"f98ae104-5d42-4ad6-acca-42f60113dfe9.jpg","mimeType":"image/jpeg"},{"uri":"cf272b2a-2d32-4c2f-adbd-db19f0e2cfd0.jpg","mimeType":"image/jpeg"},{"uri":"27274376-08fe-49a1-8574-ffdf98122de1.jpg","mimeType":"image/jpeg"}],"samplers":[{"wrapS":10497,"wrapT":10497}],"cameras":[{"name":"Camera","type":"perspective","extras":{"targetDistance":0.714},"perspective":{"aspectRatio":1.46875,"yfov":0.6108652381980153,"zfar":47.0967096709671,"znear":0.003780978097809781}}],"scene":0,"scenes":[{"nodes":[0,37],"name":"BlackHoleInsides"}],"extensionsUsed":["KHR_texture_transform"],"buffers":[{"byteLength":25035264,"uri":"BlackHoleInsides.bin"}]}