{"asset":{"version":"2.0","generator":"VECTARY"},"nodes":[{"translation":[0,0.002,4.440892098500626e-19],"scale":[0.001,0.001,0.001],"rotation":[-0.5,0.5,-0.4999999999999999,0.5000000000000001],"name":"Object","mesh":0},{"translation":[0.5082333526780662,0.23858895034298094,-0.08563052373978534],"scale":[1,1,1],"rotation":[-0.12566987755580789,0.7923802280855036,0.17442626975935915,0.5708906484013458],"name":"Camera","camera":0}],"materials":[{"pbrMetallicRoughness":{"baseColorFactor":[1,1,1,1],"baseColorTexture":{"index":0,"extensions":{"KHR_texture_transform":{"offset":[0,0],"scale":[3,3]}},"texCoord":0},"metallicFactor":0,"roughnessFactor":0.2},"name":"African Black Wood","emissiveFactor":[0,0,0],"alphaMode":"OPAQUE","doubleSided":true}],"textures":[{"sampler":0,"source":0}],"images":[{"uri":"ea5655bf-4ae0-45bd-9506-e43783b9f7aa.jpg","mimeType":"image/jpeg"}],"samplers":[{"wrapS":10497,"wrapT":10497}],"meshes":[{"primitives":[{"mode":4,"attributes":{"POSITION":1,"NORMAL":2,"TEXCOORD_0":3},"material":0,"indices":0}]}],"accessors":[{"bufferView":0,"byteOffset":0,"componentType":5125,"count":10800,"type":"SCALAR"},{"bufferView":1,"byteOffset":0,"componentType":5126,"count":10800,"max":[82.34552001953125,82.34552001953125,6],"min":[-82.34552001953125,-82.34552001953125,0],"type":"VEC3"},{"bufferView":2,"byteOffset":0,"componentType":5126,"count":10800,"type":"VEC3"},{"bufferView":3,"byteOffset":0,"componentType":5126,"count":10800,"type":"VEC2"}],"bufferViews":[{"buffer":0,"byteOffset":0,"byteLength":43200,"target":34963},{"buffer":0,"byteOffset":43200,"byteLength":129600,"target":34962},{"buffer":0,"byteOffset":172800,"byteLength":129600,"target":34962},{"buffer":0,"byteOffset":302400,"byteLength":86400,"target":34962}],"cameras":[{"name":"Camera","type":"perspective","extras":{"targetDistance":0.5255254791517023},"perspective":{"aspectRatio":1.608154020385051,"yfov":0.6108652381980153,"zfar":39.933961603925084,"znear":0.003045853954087048}}],"scene":0,"scenes":[{"nodes":[0,1],"name":"RingOne"}],"extensionsUsed":["KHR_texture_transform"],"buffers":[{"byteLength":388800,"uri":"RingOne.bin"}]}
