{"asset":{"version":"2.0","generator":"VECTARY"},"nodes":[{"translation":[0.012,-0.035,-7.105427357601002e-18],"scale":[0.022,0.022,0.022],"rotation":[-0.7071067811865475,0,0,0.7071067811865476],"name":"Ring Planet","children":[1]},{"translation":[0.005388636688653858,4.443887071023948,2.8813516990831203],"scale":[1.4420548630203456,1.442054860898641,1.4420548654815104],"rotation":[0.7744256208010605,-0.13898796314135875,0.10902992340267653,0.6075029051341704],"name":"Asteroid Field","mesh":0},{"translation":[-0.08135807472088732,0.07139946238440381,0.29794212312073864],"scale":[1,1,1],"rotation":[-0.1684579849773828,-0.19549920258371228,-0.03410932060008007,0.965524998813958],"name":"Camera","camera":0}],"materials":[{"pbrMetallicRoughness":{"baseColorFactor":[0.17013837322331243,0.17013837322331243,0.17343903633213503,1],"metallicFactor":0.2,"roughnessFactor":0.2},"name":"Material","emissiveFactor":[0,0,0],"alphaMode":"OPAQUE","doubleSided":true}],"meshes":[{"primitives":[{"mode":4,"attributes":{"POSITION":1,"NORMAL":2,"TEXCOORD_0":3},"material":0,"indices":0}]}],"accessors":[{"bufferView":0,"byteOffset":0,"componentType":5125,"count":6084,"type":"SCALAR"},{"bufferView":1,"byteOffset":0,"componentType":5126,"count":6084,"max":[3.2173876762390137,0.12978585064411163,6.30626106262207],"min":[-3.2173876762390137,-0.12978586554527283,-2.2459528582701e-16],"type":"VEC3"},{"bufferView":2,"byteOffset":0,"componentType":5126,"count":6084,"type":"VEC3"},{"bufferView":3,"byteOffset":0,"componentType":5126,"count":6084,"type":"VEC2"}],"bufferViews":[{"buffer":0,"byteOffset":0,"byteLength":24336,"target":34963},{"buffer":0,"byteOffset":24336,"byteLength":73008,"target":34962},{"buffer":0,"byteOffset":97344,"byteLength":73008,"target":34962},{"buffer":0,"byteOffset":170352,"byteLength":48672,"target":34962}],"cameras":[{"name":"Camera","type":"perspective","extras":{"targetDistance":0.32653326878555017},"perspective":{"aspectRatio":1.608154020385051,"yfov":0.6108652381980153,"zfar":32.371501363987306,"znear":0.0022697067189355394}}],"scene":0,"scenes":[{"nodes":[0,2],"name":"NewAsteroids"}],"extensionsUsed":["KHR_texture_transform"],"buffers":[{"byteLength":219024,"uri":"NewAsteroids.bin"}]}
