{"asset":{"version":"2.0","generator":"VECTARY"},"nodes":[{"translation":[0,-0.0375,-7.105427357601002e-18],"scale":[0.001,0.001,0.001],"rotation":[-0.7071067811865475,0,0,0.7071067811865476],"name":"Object 8","mesh":0},{"translation":[-0.08135807472088732,0.07139946238440381,0.29794212312073864],"scale":[1,1,1],"rotation":[-0.1684579849773828,-0.19549920258371228,-0.03410932060008007,0.965524998813958],"name":"Camera","camera":0}],"materials":[{"pbrMetallicRoughness":{"baseColorFactor":[1,1,1,1],"baseColorTexture":{"index":0,"extensions":{"KHR_texture_transform":{"offset":[0,0],"scale":[2,2]}},"texCoord":0},"metallicFactor":0,"roughnessFactor":1},"name":"Yellow Pattern","normalTexture":{"index":1,"scale":2,"extensions":{"KHR_texture_transform":{"offset":[0,0],"scale":[2,2]}},"texCoord":0},"emissiveFactor":[0,0,0],"alphaMode":"OPAQUE","doubleSided":false}],"textures":[{"sampler":0,"source":0},{"sampler":0,"source":1}],"images":[{"uri":"fb2179a8-4596-431d-8e96-75e68bd03060.jpg","mimeType":"image/jpeg"},{"uri":"shared:34e9ee4c-49bc-4296-b3e1-445c60ce59fb:c17bab3f-ad13-40f4-93ee-80760176bdaa.png","mimeType":"image/png"}],"samplers":[{"wrapS":10497,"wrapT":10497}],"meshes":[{"primitives":[{"mode":4,"attributes":{"POSITION":1,"NORMAL":2,"TEXCOORD_0":3},"material":0,"indices":0}]}],"accessors":[{"bufferView":0,"byteOffset":0,"componentType":5125,"count":2280,"type":"SCALAR"},{"bufferView":1,"byteOffset":0,"componentType":5126,"count":2280,"max":[50,50,100],"min":[-50,-50,0],"type":"VEC3"},{"bufferView":2,"byteOffset":0,"componentType":5126,"count":2280,"type":"VEC3"},{"bufferView":3,"byteOffset":0,"componentType":5126,"count":2280,"type":"VEC2"}],"bufferViews":[{"buffer":0,"byteOffset":0,"byteLength":9120,"target":34963},{"buffer":0,"byteOffset":9120,"byteLength":27360,"target":34962},{"buffer":0,"byteOffset":36480,"byteLength":27360,"target":34962},{"buffer":0,"byteOffset":63840,"byteLength":18240,"target":34962}],"cameras":[{"name":"Camera","type":"perspective","extras":{"targetDistance":0.32653326878555017},"perspective":{"aspectRatio":1.7026378896882495,"yfov":0.6108652381980153,"zfar":32.371501363987306,"znear":0.0022697067189355394}}],"scene":0,"scenes":[{"nodes":[0,1],"name":"NewSun"}],"extensionsUsed":["KHR_texture_transform"],"buffers":[{"byteLength":82080,"uri":"NewSun.bin"}]}