{"asset":{"version":"2.0","generator":"VECTARY"},"nodes":[{"translation":[-0.003,0,0],"scale":[0.001,0.001,0.001],"rotation":[-0.5,0.5,-0.4999999999999999,0.5000000000000001],"name":"Object 4","mesh":0},{"translation":[0.3202326056233075,0.22524793315006314,-0.09492021334693457],"scale":[1,1,1],"rotation":[-0.17953782359125353,0.7499424695426596,0.22624602825048584,0.595117800924534],"name":"Camera","camera":0}],"materials":[{"pbrMetallicRoughness":{"baseColorFactor":[1,0,0.8912620368134188,1],"baseColorTexture":{"index":0,"extensions":{"KHR_texture_transform":{"offset":[0,0],"scale":[1,1]}},"texCoord":0},"metallicFactor":1,"roughnessFactor":1},"name":"Glowing Gradient","emissiveTexture":{"index":1,"extensions":{"KHR_texture_transform":{"offset":[0,0],"scale":[1,1]}},"texCoord":0},"emissiveFactor":[0.32,0.32,0.32],"alphaMode":"OPAQUE","doubleSided":true}],"textures":[{"sampler":0,"source":0},{"sampler":0,"source":1}],"images":[{"uri":"a809ba58-2e75-4734-a860-b15c3adf1096.jpg","mimeType":"image/jpeg"},{"uri":"shared:fd0fb5df-f894-4b36-a456-69c92557ec73:16a2d9e2-a203-42b1-bcbf-6eb7f74fba2f.png","mimeType":"image/png"}],"samplers":[{"wrapS":10497,"wrapT":10497}],"meshes":[{"primitives":[{"mode":4,"attributes":{"POSITION":1,"NORMAL":2,"TEXCOORD_0":3},"material":0,"indices":0}]}],"accessors":[{"bufferView":0,"byteOffset":0,"componentType":5125,"count":10440,"type":"SCALAR"},{"bufferView":1,"byteOffset":0,"componentType":5126,"count":10440,"max":[42.66093063354492,42.66093063354492,6],"min":[-42.66093063354492,-42.66093063354492,0],"type":"VEC3"},{"bufferView":2,"byteOffset":0,"componentType":5126,"count":10440,"type":"VEC3"},{"bufferView":3,"byteOffset":0,"componentType":5126,"count":10440,"type":"VEC2"}],"bufferViews":[{"buffer":0,"byteOffset":0,"byteLength":41760,"target":34963},{"buffer":0,"byteOffset":41760,"byteLength":125280,"target":34962},{"buffer":0,"byteOffset":167040,"byteLength":125280,"target":34962},{"buffer":0,"byteOffset":292320,"byteLength":83520,"target":34962}],"cameras":[{"name":"Camera","type":"perspective","extras":{"targetDistance":0.4096896177921156},"perspective":{"aspectRatio":1.7026378896882495,"yfov":0.6108652381980153,"zfar":35.53175865196559,"znear":0.002594048914280679}}],"scene":0,"scenes":[{"nodes":[0,1],"name":"Ring15"}],"extensionsUsed":["KHR_texture_transform"],"buffers":[{"byteLength":375840,"uri":"Ring15.bin"}]}
