{"asset":{"version":"2.0","generator":"VECTARY"},"nodes":[{"translation":[0,-0.0375,-7.105427357601002e-18],"scale":[0.001,0.001,0.001],"rotation":[-0.7071067811865475,0,0,0.7071067811865476],"name":"Object 8","mesh":0},{"translation":[0.012,-0.035,-7.105427357601002e-18],"scale":[0.022,0.022,0.022],"rotation":[-0.7071067811865475,0,0,0.7071067811865476],"name":"Ring Planet","children":[2]},{"translation":[0.005388636688653858,4.443887071023948,2.8813516990831203],"scale":[1.4420548630203456,1.442054860898641,1.4420548654815104],"rotation":[0.7744256208010605,-0.13898796314135875,0.10902992340267653,0.6075029051341704],"name":"Asteroid Field","mesh":1},{"translation":[-0.04614617308966488,0.21798517408686593,0.22840928837501698],"scale":[1,1,1],"rotation":[-0.40100702772686275,-0.157633164914519,-0.07026122154040026,0.8996713343106749],"name":"Camera","camera":0}],"materials":[{"pbrMetallicRoughness":{"baseColorFactor":[0.9743002023888613,1,0.04777575355617064,1],"metallicFactor":0.05,"roughnessFactor":0.1},"name":"Sun yellow glossy","emissiveFactor":[0,0,0],"alphaMode":"OPAQUE","doubleSided":false},{"pbrMetallicRoughness":{"baseColorFactor":[0.17013837322331243,0.17013837322331243,0.17343903633213503,1],"metallicFactor":0.1,"roughnessFactor":0},"name":"Material","emissiveFactor":[0,0,0],"alphaMode":"OPAQUE","doubleSided":false}],"meshes":[{"primitives":[{"mode":4,"attributes":{"POSITION":1,"NORMAL":2,"TEXCOORD_0":3},"material":0,"indices":0}]},{"primitives":[{"mode":4,"attributes":{"POSITION":5,"NORMAL":6,"TEXCOORD_0":7},"material":1,"indices":4}]}],"accessors":[{"bufferView":0,"byteOffset":0,"componentType":5125,"count":2280,"type":"SCALAR"},{"bufferView":1,"byteOffset":0,"componentType":5126,"count":2280,"max":[50,50,100],"min":[-50,-50,0],"type":"VEC3"},{"bufferView":2,"byteOffset":0,"componentType":5126,"count":2280,"type":"VEC3"},{"bufferView":3,"byteOffset":0,"componentType":5126,"count":2280,"type":"VEC2"},{"bufferView":4,"byteOffset":0,"componentType":5125,"count":6084,"type":"SCALAR"},{"bufferView":5,"byteOffset":0,"componentType":5126,"count":6084,"max":[3.2173876762390137,0.12978585064411163,6.30626106262207],"min":[-3.2173876762390137,-0.12978586554527283,-2.2459528582701e-16],"type":"VEC3"},{"bufferView":6,"byteOffset":0,"componentType":5126,"count":6084,"type":"VEC3"},{"bufferView":7,"byteOffset":0,"componentType":5126,"count":6084,"type":"VEC2"}],"bufferViews":[{"buffer":0,"byteOffset":0,"byteLength":9120,"target":34963},{"buffer":0,"byteOffset":9120,"byteLength":27360,"target":34962},{"buffer":0,"byteOffset":36480,"byteLength":27360,"target":34962},{"buffer":0,"byteOffset":63840,"byteLength":18240,"target":34962},{"buffer":0,"byteOffset":82080,"byteLength":24336,"target":34963},{"buffer":0,"byteOffset":106416,"byteLength":73008,"target":34962},{"buffer":0,"byteOffset":179424,"byteLength":73008,"target":34962},{"buffer":0,"byteOffset":252432,"byteLength":48672,"target":34962}],"cameras":[{"name":"Camera","type":"perspective","extras":{"targetDistance":0.3445806820055931},"perspective":{"aspectRatio":1.608154020385051,"yfov":0.6108652381980153,"zfar":33.05737165337788,"znear":0.002340098669688782}}],"scene":0,"scenes":[{"nodes":[0,1,3],"name":"Asteroids"}],"extensionsUsed":["KHR_texture_transform"],"buffers":[{"byteLength":301104,"uri":"Asteroids.bin"}]}