{"asset":{"version":"2.0","generator":"VECTARY"},"nodes":[{"translation":[0.003,0,0],"scale":[0.001,0.001,0.001],"rotation":[-0.5,-0.5,0.4999999999999999,0.5000000000000001],"name":"Object","mesh":0},{"translation":[0.31486595673831796,0.2359332533403813,-0.0851707386210231],"scale":[1,1,1],"rotation":[-0.19186541616768255,0.7388752187449448,0.23572309479284048,0.6014031058987787],"name":"Camera","camera":0}],"materials":[{"pbrMetallicRoughness":{"baseColorFactor":[1,1,1,1],"baseColorTexture":{"index":0,"extensions":{"KHR_texture_transform":{"offset":[0,0],"scale":[3,3]}},"texCoord":0},"metallicFactor":0,"roughnessFactor":0.2},"name":"African Black Wood","emissiveFactor":[0,0,0],"alphaMode":"OPAQUE","doubleSided":true}],"textures":[{"sampler":0,"source":0}],"images":[{"uri":"07275ab8-2a66-49ad-bd5f-6622b5bfa819.jpg","mimeType":"image/jpeg"}],"samplers":[{"wrapS":10497,"wrapT":10497}],"meshes":[{"primitives":[{"mode":4,"attributes":{"POSITION":1,"NORMAL":2,"TEXCOORD_0":3},"material":0,"indices":0}]}],"accessors":[{"bufferView":0,"byteOffset":0,"componentType":5125,"count":10800,"type":"SCALAR"},{"bufferView":1,"byteOffset":0,"componentType":5126,"count":10800,"max":[82.34552001953125,82.34552001953125,6],"min":[-82.34552001953125,-82.34552001953125,0],"type":"VEC3"},{"bufferView":2,"byteOffset":0,"componentType":5126,"count":10800,"type":"VEC3"},{"bufferView":3,"byteOffset":0,"componentType":5126,"count":10800,"type":"VEC2"}],"bufferViews":[{"buffer":0,"byteOffset":0,"byteLength":43200,"target":34963},{"buffer":0,"byteOffset":43200,"byteLength":129600,"target":34962},{"buffer":0,"byteOffset":172800,"byteLength":129600,"target":34962},{"buffer":0,"byteOffset":302400,"byteLength":86400,"target":34962}],"cameras":[{"name":"Camera","type":"perspective","extras":{"targetDistance":0.40968961779211566},"perspective":{"aspectRatio":1.608154020385051,"yfov":0.6108652381980153,"zfar":35.53175865196559,"znear":0.002594048914280679}}],"scene":0,"scenes":[{"nodes":[0,1],"name":"Ring11"}],"extensionsUsed":["KHR_texture_transform"],"buffers":[{"byteLength":388800,"uri":"Ring11.bin"}]}
