{"asset":{"version":"2.0","generator":"VECTARY"},"nodes":[{"translation":[-0.003,0,0],"scale":[0.001,0.001,0.001],"rotation":[-0.5,0.5,-0.4999999999999999,0.5000000000000001],"name":"Object 2","mesh":0},{"translation":[0.31486595673831796,0.2359332533403813,-0.0851707386210231],"scale":[1,1,1],"rotation":[-0.19186541616768255,0.7388752187449448,0.23572309479284048,0.6014031058987787],"name":"Camera","camera":0}],"materials":[{"pbrMetallicRoughness":{"baseColorFactor":[0.3111804990579844,0.3111804990579844,0.3111804990579844,1],"baseColorTexture":{"index":0,"extensions":{"KHR_texture_transform":{"offset":[0,0],"scale":[1,1]}},"texCoord":0},"metallicRoughnessTexture":{"index":2,"extensions":{"KHR_texture_transform":{"offset":[0,0],"scale":[1,1]}},"texCoord":0},"metallicFactor":0,"roughnessFactor":1},"name":"African Black Wood 2","normalTexture":{"index":1,"scale":0.52,"extensions":{"KHR_texture_transform":{"offset":[0,0],"scale":[1,1]}},"texCoord":0},"emissiveFactor":[0,0,0],"alphaMode":"OPAQUE","doubleSided":true}],"textures":[{"sampler":0,"source":0},{"sampler":0,"source":1},{"sampler":0,"source":2}],"images":[{"uri":"07f39c96-4c1d-4fc3-a07d-aa053284a233.jpg","mimeType":"image/jpeg"},{"uri":"shared:0f3a284f-3e91-40f6-98a3-3ce942ef2f19:aab2d9d7-a57f-43ca-aef6-72b7882ec2f0.jpg","mimeType":"image/jpeg"},{"uri":"b06cd1f1-8c74-45d3-9dcb-9fb6e1264544.jpg","mimeType":"image/jpeg"}],"samplers":[{"wrapS":10497,"wrapT":10497}],"meshes":[{"primitives":[{"mode":4,"attributes":{"POSITION":1,"NORMAL":2,"TEXCOORD_0":3},"material":0,"indices":0}]}],"accessors":[{"bufferView":0,"byteOffset":0,"componentType":5125,"count":10560,"type":"SCALAR"},{"bufferView":1,"byteOffset":0,"componentType":5126,"count":10560,"max":[62.50322723388672,62.50322723388672,6],"min":[-62.50322723388672,-62.50322723388672,0],"type":"VEC3"},{"bufferView":2,"byteOffset":0,"componentType":5126,"count":10560,"type":"VEC3"},{"bufferView":3,"byteOffset":0,"componentType":5126,"count":10560,"type":"VEC2"}],"bufferViews":[{"buffer":0,"byteOffset":0,"byteLength":42240,"target":34963},{"buffer":0,"byteOffset":42240,"byteLength":126720,"target":34962},{"buffer":0,"byteOffset":168960,"byteLength":126720,"target":34962},{"buffer":0,"byteOffset":295680,"byteLength":84480,"target":34962}],"cameras":[{"name":"Camera","type":"perspective","extras":{"targetDistance":0.40968961779211566},"perspective":{"aspectRatio":1.7026378896882495,"yfov":0.6108652381980153,"zfar":35.53175865196559,"znear":0.002594048914280679}}],"scene":0,"scenes":[{"nodes":[0,1],"name":"Ring13"}],"extensionsUsed":["KHR_texture_transform"],"buffers":[{"byteLength":380160,"uri":"Ring13.bin"}]}
