{"asset":{"version":"2.0","generator":"VECTARY"},"nodes":[{"translation":[0,-0.015,-2.6645352591003758e-18],"scale":[0.001,0.001,0.001],"rotation":[-0.7071067811865475,0,0,0.7071067811865476],"name":"Sphere","mesh":0},{"translation":[9.381671475239273e-10,-0.0007682803863639187,-1.6653345369377348e-19],"scale":[0.001,0.001,0.001],"rotation":[-0.7071067811865475,0,0,0.7071067811865476],"name":"Merged Objects 2","mesh":1},{"translation":[0.027477601746368513,0.09307206686214994,-0.49106444690054285],"scale":[1,1,1],"rotation":[-1.1102230246251565e-16,-1,-5.551115123125783e-17,2.220446049250313e-16],"name":"Camera","camera":0}],"materials":[{"pbrMetallicRoughness":{"baseColorFactor":[1,1,1,0.5],"metallicFactor":1,"roughnessFactor":1},"name":"Emission Red ","emissiveFactor":[1,0.07058823529411765,0.00784313725490196],"alphaMode":"BLEND","doubleSided":false},{"pbrMetallicRoughness":{"baseColorFactor":[1,1,1,1],"baseColorTexture":{"index":0,"extensions":{"KHR_texture_transform":{"offset":[0,0],"scale":[1,1]}},"texCoord":0},"metallicFactor":0,"roughnessFactor":1},"name":"Red to Pink","emissiveTexture":{"index":1,"extensions":{"KHR_texture_transform":{"offset":[0,0],"scale":[1,1]}},"texCoord":0},"emissiveFactor":[0,0,0],"alphaMode":"OPAQUE","doubleSided":false}],"meshes":[{"primitives":[{"mode":4,"attributes":{"POSITION":1,"NORMAL":2,"TEXCOORD_0":3},"material":0,"indices":0}]},{"primitives":[{"mode":4,"attributes":{"POSITION":5,"NORMAL":6,"TEXCOORD_0":7},"material":1,"indices":4}]}],"accessors":[{"bufferView":0,"byteOffset":0,"componentType":5125,"count":1518,"type":"SCALAR"},{"bufferView":1,"byteOffset":0,"componentType":5126,"count":1518,"max":[53.94602584838867,53.94602584838867,107.90666198730469],"min":[-53.94602584838867,-53.94602584838867,0],"type":"VEC3"},{"bufferView":2,"byteOffset":0,"componentType":5126,"count":1518,"type":"VEC3"},{"bufferView":3,"byteOffset":0,"componentType":5126,"count":1518,"type":"VEC2"},{"bufferView":4,"byteOffset":0,"componentType":5125,"count":1476,"type":"SCALAR"},{"bufferView":5,"byteOffset":0,"componentType":5126,"count":1476,"max":[21.55510139465332,3.5,76.2302017211914],"min":[-21.555103302001953,-3.5,0.7682803869247437],"type":"VEC3"},{"bufferView":6,"byteOffset":0,"componentType":5126,"count":1476,"type":"VEC3"},{"bufferView":7,"byteOffset":0,"componentType":5126,"count":1476,"type":"VEC2"}],"bufferViews":[{"buffer":0,"byteOffset":0,"byteLength":6072,"target":34963},{"buffer":0,"byteOffset":6072,"byteLength":18216,"target":34962},{"buffer":0,"byteOffset":24288,"byteLength":18216,"target":34962},{"buffer":0,"byteOffset":42504,"byteLength":12144,"target":34962},{"buffer":0,"byteOffset":54648,"byteLength":5904,"target":34963},{"buffer":0,"byteOffset":60552,"byteLength":17712,"target":34962},{"buffer":0,"byteOffset":78264,"byteLength":17712,"target":34962},{"buffer":0,"byteOffset":95976,"byteLength":11808,"target":34962}],"textures":[{"sampler":0,"source":0},{"sampler":0,"source":1}],"images":[{"uri":"fe79ed33-0b16-45cc-97a2-b457b6f4bbee.jpg","mimeType":"image/jpeg"},{"uri":"shared:e519953d-5594-49d9-8a5a-76ab491119a5:2641838b-ac89-4d3c-bc5b-0035e46c680e.png","mimeType":"image/png"}],"samplers":[{"wrapS":10497,"wrapT":10497}],"cameras":[{"name":"Camera","type":"orthographic","extras":{"targetDistance":0.4508195740967876},"orthographic":{"xmag":0.4571752419393702,"ymag":0.2842857314313126,"zfar":37.09485330100803,"znear":0.002754471786156087}}],"scene":0,"scenes":[{"nodes":[0,1,2],"name":"LearnCoSymb"}],"extensionsUsed":["KHR_texture_transform"],"buffers":[{"byteLength":107784,"uri":"LearnCoSymb.bin"}]}