{"asset":{"version":"2.0","generator":"VECTARY"},"nodes":[{"translation":[0,0,0],"scale":[0.001,0.001,0.001],"rotation":[-0.7071067811865475,0,0,0.7071067811865476],"name":"Object 6","mesh":0},{"translation":[0.032425061207935174,0.19888843729053055,0.13832941906450488],"scale":[1,1,1],"rotation":[-0.4395399541703746,0.1288867306692988,0.06389469786694452,0.8866286183796327],"name":"Camera","camera":0}],"materials":[{"pbrMetallicRoughness":{"baseColorFactor":[1,1,1,1],"baseColorTexture":{"index":0,"extensions":{"KHR_texture_transform":{"offset":[0,0],"scale":[3,3]}},"texCoord":0},"metallicFactor":0,"roughnessFactor":0.2},"name":"Grayscale Blur","emissiveFactor":[0,0,0],"alphaMode":"OPAQUE","doubleSided":true}],"textures":[{"sampler":0,"source":0}],"images":[{"uri":"7566ef6c-334d-4f1e-8431-cb4e2409cd93.jpg","mimeType":"image/jpeg"}],"samplers":[{"wrapS":10497,"wrapT":10497}],"meshes":[{"primitives":[{"mode":4,"attributes":{"POSITION":1,"NORMAL":2,"TEXCOORD_0":3},"material":0,"indices":0}]}],"accessors":[{"bufferView":0,"byteOffset":0,"componentType":5125,"count":10560,"type":"SCALAR"},{"bufferView":1,"byteOffset":0,"componentType":5126,"count":10560,"max":[23.810752868652344,23.810752868652344,4],"min":[-23.810752868652344,-23.810752868652344,0],"type":"VEC3"},{"bufferView":2,"byteOffset":0,"componentType":5126,"count":10560,"type":"VEC3"},{"bufferView":3,"byteOffset":0,"componentType":5126,"count":10560,"type":"VEC2"}],"bufferViews":[{"buffer":0,"byteOffset":0,"byteLength":42240,"target":34963},{"buffer":0,"byteOffset":42240,"byteLength":126720,"target":34962},{"buffer":0,"byteOffset":168960,"byteLength":126720,"target":34962},{"buffer":0,"byteOffset":295680,"byteLength":84480,"target":34962}],"cameras":[{"name":"Camera","type":"perspective","extras":{"targetDistance":0.23594895355851503},"perspective":{"aspectRatio":1.608154020385051,"yfov":0.6108652381980153,"zfar":28.928953130536627,"znear":0.0019163925581340221}}],"scene":0,"scenes":[{"nodes":[0,1],"name":"RingOne"}],"extensionsUsed":["KHR_texture_transform"],"buffers":[{"byteLength":380160,"uri":"RingOne.bin"}]}
