{"asset":{"version":"2.0","generator":"VECTARY"},"nodes":[{"translation":[0,0,0],"scale":[0.001,0.001,0.001],"rotation":[-0.7071067811865475,0,0,0.7071067811865476],"name":"Object","mesh":0},{"translation":[0.014178804001164303,0.4107820924127771,-0.018770516093802626],"scale":[1,1,1],"rotation":[-0.7071067811865475,5.551115123125783e-17,0,0.7071067811865475],"name":"Camera","camera":0}],"materials":[{"pbrMetallicRoughness":{"baseColorFactor":[0.07382776632778461,0,0.18014428915439032,1],"metallicFactor":0.11,"roughnessFactor":0},"name":"Shiny Chrome 2","emissiveFactor":[0,0,0],"alphaMode":"OPAQUE","doubleSided":false}],"meshes":[{"primitives":[{"mode":4,"attributes":{"POSITION":1,"NORMAL":2,"TEXCOORD_0":3},"material":0,"indices":0}]}],"accessors":[{"bufferView":0,"byteOffset":0,"componentType":5125,"count":10800,"type":"SCALAR"},{"bufferView":1,"byteOffset":0,"componentType":5126,"count":10800,"max":[82.34552001953125,82.34552001953125,6],"min":[-82.34552001953125,-82.34552001953125,0],"type":"VEC3"},{"bufferView":2,"byteOffset":0,"componentType":5126,"count":10800,"type":"VEC3"},{"bufferView":3,"byteOffset":0,"componentType":5126,"count":10800,"type":"VEC2"}],"bufferViews":[{"buffer":0,"byteOffset":0,"byteLength":43200,"target":34963},{"buffer":0,"byteOffset":43200,"byteLength":129600,"target":34962},{"buffer":0,"byteOffset":172800,"byteLength":129600,"target":34962},{"buffer":0,"byteOffset":302400,"byteLength":86400,"target":34962}],"cameras":[{"name":"Camera","type":"orthographic","extras":{"targetDistance":0.3753278884088424},"orthographic":{"xmag":0.3806192722081456,"ymag":0.23668085729562857,"zfar":34.22588234777079,"znear":0.0024600247672712126}}],"scene":0,"scenes":[{"nodes":[0,1],"name":"Ring 1"}],"extensionsUsed":["KHR_texture_transform"],"buffers":[{"byteLength":388800,"uri":"Ring1.bin"}]}