{"asset":{"version":"2.0","generator":"VECTARY"},"nodes":[{"translation":[0,0,0],"scale":[0.001,0.001,0.001],"rotation":[-0.7071067811865475,0,0,0.7071067811865476],"name":"Object 5","mesh":0},{"translation":[0.032425061207935174,0.19888843729053055,0.13832941906450488],"scale":[1,1,1],"rotation":[-0.4395399541703746,0.1288867306692988,0.06389469786694452,0.8866286183796327],"name":"Camera","camera":0}],"materials":[{"pbrMetallicRoughness":{"baseColorFactor":[1,1,1,1],"baseColorTexture":{"index":0,"extensions":{"KHR_texture_transform":{"offset":[0,0],"scale":[1,1]}},"texCoord":0},"metallicRoughnessTexture":{"index":2,"extensions":{"KHR_texture_transform":{"offset":[0,0],"scale":[1,1]}},"texCoord":0},"metallicFactor":0,"roughnessFactor":1},"name":"Textile Carpet","normalTexture":{"index":1,"scale":1,"extensions":{"KHR_texture_transform":{"offset":[0,0],"scale":[1,1]}},"texCoord":0},"emissiveFactor":[0,0,0],"alphaMode":"OPAQUE","doubleSided":false}],"textures":[{"sampler":0,"source":0},{"sampler":0,"source":1},{"sampler":0,"source":2}],"images":[{"uri":"a4658690-186a-450e-9783-487acb9db495.jpg","mimeType":"image/jpeg"},{"uri":"shared:c2f9c5e5-3304-41e2-833a-8d4df8c896bf:9d5b8149-de74-4d08-9768-3a56cf2227fc.jpg","mimeType":"image/jpeg"},{"uri":"6d9605b3-b1dd-45b8-9272-6602b8ff03f8.jpg","mimeType":"image/jpeg"}],"samplers":[{"wrapS":10497,"wrapT":10497}],"meshes":[{"primitives":[{"mode":4,"attributes":{"POSITION":1,"NORMAL":2,"TEXCOORD_0":3},"material":0,"indices":0}]}],"accessors":[{"bufferView":0,"byteOffset":0,"componentType":5125,"count":10320,"type":"SCALAR"},{"bufferView":1,"byteOffset":0,"componentType":5126,"count":10320,"max":[32.24372863769531,32.24372863769531,5],"min":[-32.24372863769531,-32.24372863769531,0],"type":"VEC3"},{"bufferView":2,"byteOffset":0,"componentType":5126,"count":10320,"type":"VEC3"},{"bufferView":3,"byteOffset":0,"componentType":5126,"count":10320,"type":"VEC2"}],"bufferViews":[{"buffer":0,"byteOffset":0,"byteLength":41280,"target":34963},{"buffer":0,"byteOffset":41280,"byteLength":123840,"target":34962},{"buffer":0,"byteOffset":165120,"byteLength":123840,"target":34962},{"buffer":0,"byteOffset":288960,"byteLength":82560,"target":34962}],"cameras":[{"name":"Camera","type":"perspective","extras":{"targetDistance":0.23594895355851503},"perspective":{"aspectRatio":1.608154020385051,"yfov":0.6108652381980153,"zfar":28.928953130536627,"znear":0.0019163925581340221}}],"scene":0,"scenes":[{"nodes":[0,1],"name":"RingTwo"}],"extensionsUsed":["KHR_texture_transform"],"buffers":[{"byteLength":371520,"uri":"RingTwo.bin"}]}