{"asset":{"version":"2.0","generator":"VECTARY"},"nodes":[{"translation":[0,0,0],"scale":[0.001,0.001,0.001],"rotation":[-0.7071067811865475,0,0,0.7071067811865476],"name":"Object 5","mesh":0},{"translation":[0.03303881290489653,0.24190469518940375,0.16166475650191267],"scale":[1,1,1],"rotation":[-0.45393924240849864,0.03586061546497299,0.018287970227647776,0.8901228738803563],"name":"Camera","camera":0}],"materials":[{"pbrMetallicRoughness":{"baseColorFactor":[1,1,1,1],"metallicFactor":1,"roughnessFactor":0},"name":"Shiny Chrome 3","emissiveFactor":[0,0,0],"alphaMode":"OPAQUE","doubleSided":false}],"meshes":[{"primitives":[{"mode":4,"attributes":{"POSITION":1,"NORMAL":2,"TEXCOORD_0":3},"material":0,"indices":0}]}],"accessors":[{"bufferView":0,"byteOffset":0,"componentType":5125,"count":10320,"type":"SCALAR"},{"bufferView":1,"byteOffset":0,"componentType":5126,"count":10320,"max":[32.24372863769531,32.24372863769531,5],"min":[-32.24372863769531,-32.24372863769531,0],"type":"VEC3"},{"bufferView":2,"byteOffset":0,"componentType":5126,"count":10320,"type":"VEC3"},{"bufferView":3,"byteOffset":0,"componentType":5126,"count":10320,"type":"VEC2"}],"bufferViews":[{"buffer":0,"byteOffset":0,"byteLength":41280,"target":34963},{"buffer":0,"byteOffset":41280,"byteLength":123840,"target":34962},{"buffer":0,"byteOffset":165120,"byteLength":123840,"target":34962},{"buffer":0,"byteOffset":288960,"byteLength":82560,"target":34962}],"cameras":[{"name":"Camera","type":"perspective","extras":{"targetDistance":0.2832421651288728},"perspective":{"aspectRatio":1.608154020385051,"yfov":0.6108652381980153,"zfar":30.726274902387406,"znear":0.00210085452945555}}],"scene":0,"scenes":[{"nodes":[0,1],"name":"Ring 6"}],"extensionsUsed":["KHR_texture_transform"],"buffers":[{"byteLength":371520,"uri":"Ring6.bin"}]}