{"asset":{"version":"2.0","generator":"VECTARY"},"nodes":[{"translation":[0,-0.003,-4.440892098500626e-19],"scale":[0.001,0.001,0.001],"rotation":[-0.7071067811865475,0,0,0.7071067811865476],"name":"Object 1","mesh":0},{"translation":[0.31486595673831796,0.2359332533403813,-0.0851707386210231],"scale":[1,1,1],"rotation":[-0.19186541616768255,0.7388752187449448,0.23572309479284048,0.6014031058987787],"name":"Camera","camera":0}],"materials":[{"pbrMetallicRoughness":{"baseColorFactor":[1,0,0.8912620368134188,1],"baseColorTexture":{"index":0,"extensions":{"KHR_texture_transform":{"offset":[0,0],"scale":[1,1]}},"texCoord":0},"metallicFactor":1,"roughnessFactor":1},"name":"Glowing Gradient","emissiveTexture":{"index":1,"extensions":{"KHR_texture_transform":{"offset":[0,0],"scale":[1,1]}},"texCoord":0},"emissiveFactor":[0.32,0.32,0.32],"alphaMode":"OPAQUE","doubleSided":false}],"textures":[{"sampler":0,"source":0},{"sampler":0,"source":1}],"images":[{"uri":"7581a1bc-a648-42a1-8018-4c47c7dd2e9b.jpg","mimeType":"image/jpeg"},{"uri":"shared:fd0fb5df-f894-4b36-a456-69c92557ec73:16a2d9e2-a203-42b1-bcbf-6eb7f74fba2f.png","mimeType":"image/png"}],"samplers":[{"wrapS":10497,"wrapT":10497}],"meshes":[{"primitives":[{"mode":4,"attributes":{"POSITION":1,"NORMAL":2,"TEXCOORD_0":3},"material":0,"indices":0}]}],"accessors":[{"bufferView":0,"byteOffset":0,"componentType":5125,"count":10560,"type":"SCALAR"},{"bufferView":1,"byteOffset":0,"componentType":5126,"count":10560,"max":[72.42436981201172,72.42436981201172,6],"min":[-72.42436981201172,-72.42436981201172,0],"type":"VEC3"},{"bufferView":2,"byteOffset":0,"componentType":5126,"count":10560,"type":"VEC3"},{"bufferView":3,"byteOffset":0,"componentType":5126,"count":10560,"type":"VEC2"}],"bufferViews":[{"buffer":0,"byteOffset":0,"byteLength":42240,"target":34963},{"buffer":0,"byteOffset":42240,"byteLength":126720,"target":34962},{"buffer":0,"byteOffset":168960,"byteLength":126720,"target":34962},{"buffer":0,"byteOffset":295680,"byteLength":84480,"target":34962}],"cameras":[{"name":"Camera","type":"perspective","extras":{"targetDistance":0.40968961779211566},"perspective":{"aspectRatio":1.7026378896882495,"yfov":0.6108652381980153,"zfar":35.53175865196559,"znear":0.002594048914280679}}],"scene":0,"scenes":[{"nodes":[0,1],"name":"Ring12"}],"extensionsUsed":["KHR_texture_transform"],"buffers":[{"byteLength":380160,"uri":"Ring12.bin"}]}