{"asset":{"version":"2.0","generator":"VECTARY"},"nodes":[{"translation":[0.012,-0.035,-7.105427357601002e-18],"scale":[0.032,0.032,0.032],"rotation":[-0.770497370023923,0.10143790314816935,0.0821427943301691,0.6239364678641183],"name":"Ring Planet 1","children":[1]},{"translation":[0.0053886404248625975,4.443887073422526,2.881351689299244],"scale":[1.4420548630203456,1.442054860898641,1.4420548654815104],"rotation":[0.7744256208010605,-0.13898796314135875,0.10902992340267653,0.6075029051341704],"name":"Asteroid Field","mesh":0},{"translation":[0.2156273611063546,0.21390439835594005,0.3701184293371706],"scale":[1,1,1],"rotation":[-0.24894029110981464,0.239923482738697,0.06379960480770275,0.9361597429493943],"name":"Camera","camera":0}],"materials":[{"pbrMetallicRoughness":{"baseColorFactor":[0.5859729839496614,0.5859729839496614,0.6120655998656237,1],"metallicFactor":0.2,"roughnessFactor":0.2},"name":"Material 1","emissiveFactor":[0,0,0],"alphaMode":"OPAQUE","doubleSided":true}],"meshes":[{"primitives":[{"mode":4,"attributes":{"POSITION":1,"NORMAL":2,"TEXCOORD_0":3},"material":0,"indices":0}]}],"accessors":[{"bufferView":0,"byteOffset":0,"componentType":5125,"count":5880,"type":"SCALAR"},{"bufferView":1,"byteOffset":0,"componentType":5126,"count":5880,"max":[3.2173876762390137,0.12978585064411163,6.30626106262207],"min":[-3.2173876762390137,-0.12978586554527283,-2.5338871503104187e-16],"type":"VEC3"},{"bufferView":2,"byteOffset":0,"componentType":5126,"count":5880,"type":"VEC3"},{"bufferView":3,"byteOffset":0,"componentType":5126,"count":5880,"type":"VEC2"}],"bufferViews":[{"buffer":0,"byteOffset":0,"byteLength":23520,"target":34963},{"buffer":0,"byteOffset":23520,"byteLength":70560,"target":34962},{"buffer":0,"byteOffset":94080,"byteLength":70560,"target":34962},{"buffer":0,"byteOffset":164640,"byteLength":47040,"target":34962}],"cameras":[{"name":"Camera","type":"perspective","extras":{"targetDistance":0.4764180622622927},"perspective":{"aspectRatio":1.608154020385051,"yfov":0.6108652381980153,"zfar":38.067693135280656,"znear":0.002854315874410383}}],"scene":0,"scenes":[{"nodes":[0,2],"name":"rings3"}],"extensionsUsed":["KHR_texture_transform"],"buffers":[{"byteLength":211680,"uri":"rings3.bin"}]}
