{"asset":{"version":"2.0","generator":"VECTARY"},"nodes":[{"translation":[0.001,0.0005,1.1102230246251566e-19],"scale":[0.001,0.001,0.001],"rotation":[-0.7071000500396268,0.0030853255836585237,0.0030853255836585246,0.707100050039627],"name":"Object 5","mesh":0},{"translation":[0.4827390055029541,0.27813667381985024,-0.09649771161547552],"scale":[1,1,1],"rotation":[-0.14550692174388663,0.795503886639614,0.21078014981870913,0.5491566538869298],"name":"Camera","camera":0}],"materials":[{"pbrMetallicRoughness":{"baseColorFactor":[0.3111804990579844,0.3111804990579844,0.3111804990579844,1],"baseColorTexture":{"index":0,"extensions":{"KHR_texture_transform":{"offset":[0,0],"scale":[1,1]}},"texCoord":0},"metallicRoughnessTexture":{"index":2,"extensions":{"KHR_texture_transform":{"offset":[0,0],"scale":[1,1]}},"texCoord":0},"metallicFactor":0,"roughnessFactor":1},"name":"African Black Wood 1","normalTexture":{"index":1,"scale":0.52,"extensions":{"KHR_texture_transform":{"offset":[0,0],"scale":[1,1]}},"texCoord":0},"emissiveFactor":[0,0,0],"alphaMode":"OPAQUE","doubleSided":true}],"textures":[{"sampler":0,"source":0},{"sampler":0,"source":1},{"sampler":0,"source":2}],"images":[{"uri":"aae940c8-9e07-4cd0-921d-f2ef28cb4c30.jpg","mimeType":"image/jpeg"},{"uri":"shared:0f3a284f-3e91-40f6-98a3-3ce942ef2f19:aab2d9d7-a57f-43ca-aef6-72b7882ec2f0.jpg","mimeType":"image/jpeg"},{"uri":"a8fc8c4f-d0e0-4de0-8a94-fe7caf4243c9.jpg","mimeType":"image/jpeg"}],"samplers":[{"wrapS":10497,"wrapT":10497}],"meshes":[{"primitives":[{"mode":4,"attributes":{"POSITION":1,"NORMAL":2,"TEXCOORD_0":3},"material":0,"indices":0}]}],"accessors":[{"bufferView":0,"byteOffset":0,"componentType":5125,"count":10320,"type":"SCALAR"},{"bufferView":1,"byteOffset":0,"componentType":5126,"count":10320,"max":[32.24372863769531,32.24372863769531,5],"min":[-32.24372863769531,-32.24372863769531,0],"type":"VEC3"},{"bufferView":2,"byteOffset":0,"componentType":5126,"count":10320,"type":"VEC3"},{"bufferView":3,"byteOffset":0,"componentType":5126,"count":10320,"type":"VEC2"}],"bufferViews":[{"buffer":0,"byteOffset":0,"byteLength":41280,"target":34963},{"buffer":0,"byteOffset":41280,"byteLength":123840,"target":34962},{"buffer":0,"byteOffset":165120,"byteLength":123840,"target":34962},{"buffer":0,"byteOffset":288960,"byteLength":82560,"target":34962}],"cameras":[{"name":"Camera","type":"perspective","extras":{"targetDistance":0.5255254791517023},"perspective":{"aspectRatio":1.608154020385051,"yfov":0.6108652381980153,"zfar":39.933961603925084,"znear":0.003045853954087048}}],"scene":0,"scenes":[{"nodes":[0,1],"name":"RingSix"}],"extensionsUsed":["KHR_texture_transform"],"buffers":[{"byteLength":371520,"uri":"RingSix.bin"}]}
