{"asset":{"version":"2.0","generator":"VECTARY"},"nodes":[{"translation":[0,-0.003,-4.440892098500626e-19],"scale":[0.001,0.001,0.001],"rotation":[-0.7071067811865475,0,0,0.7071067811865476],"name":"Object 3","mesh":0},{"translation":[0.31486595673831796,0.2359332533403813,-0.0851707386210231],"scale":[1,1,1],"rotation":[-0.19186541616768255,0.7388752187449448,0.23572309479284048,0.6014031058987787],"name":"Camera","camera":0}],"materials":[{"pbrMetallicRoughness":{"baseColorFactor":[1,1,1,1],"baseColorTexture":{"index":0,"extensions":{"KHR_texture_transform":{"offset":[0,0],"scale":[3,3]}},"texCoord":0},"metallicFactor":0,"roughnessFactor":0.2},"name":"African Black Wood","emissiveFactor":[0,0,0],"alphaMode":"OPAQUE","doubleSided":false}],"textures":[{"sampler":0,"source":0}],"images":[{"uri":"6a554c21-ad4f-4833-996f-412a24574c4c.jpg","mimeType":"image/jpeg"}],"samplers":[{"wrapS":10497,"wrapT":10497}],"meshes":[{"primitives":[{"mode":4,"attributes":{"POSITION":1,"NORMAL":2,"TEXCOORD_0":3},"material":0,"indices":0}]}],"accessors":[{"bufferView":0,"byteOffset":0,"componentType":5125,"count":10440,"type":"SCALAR"},{"bufferView":1,"byteOffset":0,"componentType":5126,"count":10440,"max":[52.58208084106445,52.58208084106445,6],"min":[-52.58208084106445,-52.58208084106445,0],"type":"VEC3"},{"bufferView":2,"byteOffset":0,"componentType":5126,"count":10440,"type":"VEC3"},{"bufferView":3,"byteOffset":0,"componentType":5126,"count":10440,"type":"VEC2"}],"bufferViews":[{"buffer":0,"byteOffset":0,"byteLength":41760,"target":34963},{"buffer":0,"byteOffset":41760,"byteLength":125280,"target":34962},{"buffer":0,"byteOffset":167040,"byteLength":125280,"target":34962},{"buffer":0,"byteOffset":292320,"byteLength":83520,"target":34962}],"cameras":[{"name":"Camera","type":"perspective","extras":{"targetDistance":0.40968961779211566},"perspective":{"aspectRatio":1.7026378896882495,"yfov":0.6108652381980153,"zfar":35.53175865196559,"znear":0.002594048914280679}}],"scene":0,"scenes":[{"nodes":[0,1],"name":"Ring14"}],"extensionsUsed":["KHR_texture_transform"],"buffers":[{"byteLength":375840,"uri":"Ring14.bin"}]}