{"asset":{"version":"2.0","generator":"VECTARY"},"nodes":[{"translation":[0,-0.013000000000000001,-2.6645352591003758e-18],"scale":[0.001,0.001,0.001],"rotation":[-0.7071067811865475,0,0,0.7071067811865476],"name":"Object 7","mesh":0},{"translation":[0.032425061207935174,0.19888843729053055,0.13832941906450488],"scale":[1,1,1],"rotation":[-0.4395399541703746,0.1288867306692988,0.06389469786694452,0.8866286183796327],"name":"Camera","camera":0}],"materials":[{"pbrMetallicRoughness":{"baseColorFactor":[0.3111804990579844,0.3111804990579844,0.3111804990579844,1],"baseColorTexture":{"index":0,"extensions":{"KHR_texture_transform":{"offset":[0,0],"scale":[1,1]}},"texCoord":0},"metallicRoughnessTexture":{"index":2,"extensions":{"KHR_texture_transform":{"offset":[0,0],"scale":[1,1]}},"texCoord":0},"metallicFactor":0,"roughnessFactor":1},"name":"African Black Wood","normalTexture":{"index":1,"scale":0.52,"extensions":{"KHR_texture_transform":{"offset":[0,0],"scale":[1,1]}},"texCoord":0},"emissiveFactor":[0,0,0],"alphaMode":"OPAQUE","doubleSided":true}],"textures":[{"sampler":0,"source":0},{"sampler":0,"source":1},{"sampler":0,"source":2}],"images":[{"uri":"b71340ff-f1dc-41f2-b3d1-0e68659c37cc.jpg","mimeType":"image/jpeg"},{"uri":"shared:0f3a284f-3e91-40f6-98a3-3ce942ef2f19:aab2d9d7-a57f-43ca-aef6-72b7882ec2f0.jpg","mimeType":"image/jpeg"},{"uri":"b0ce68f8-c3e1-4934-98de-71bd1efbfde2.jpg","mimeType":"image/jpeg"}],"samplers":[{"wrapS":10497,"wrapT":10497}],"meshes":[{"primitives":[{"mode":4,"attributes":{"POSITION":1,"NORMAL":2,"TEXCOORD_0":3},"material":0,"indices":0}]}],"accessors":[{"bufferView":0,"byteOffset":0,"componentType":5125,"count":59400,"type":"SCALAR"},{"bufferView":1,"byteOffset":0,"componentType":5126,"count":59400,"max":[16.057619094848633,16.057619094848633,32.115238189697266],"min":[-16.057619094848633,-16.057619094848633,0],"type":"VEC3"},{"bufferView":2,"byteOffset":0,"componentType":5126,"count":59400,"type":"VEC3"},{"bufferView":3,"byteOffset":0,"componentType":5126,"count":59400,"type":"VEC2"}],"bufferViews":[{"buffer":0,"byteOffset":0,"byteLength":237600,"target":34963},{"buffer":0,"byteOffset":237600,"byteLength":712800,"target":34962},{"buffer":0,"byteOffset":950400,"byteLength":712800,"target":34962},{"buffer":0,"byteOffset":1663200,"byteLength":475200,"target":34962}],"cameras":[{"name":"Camera","type":"perspective","extras":{"targetDistance":0.23594895355851503},"perspective":{"aspectRatio":1.608154020385051,"yfov":0.6108652381980153,"zfar":28.928953130536627,"znear":0.0019163925581340221}}],"scene":0,"scenes":[{"nodes":[0,1],"name":"RingSphere"}],"extensionsUsed":["KHR_texture_transform"],"buffers":[{"byteLength":2138400,"uri":"RingSphere.bin"}]}
