{"asset":{"version":"2.0","generator":"VECTARY"},"nodes":[{"translation":[-0.002,0,0],"scale":[0.001,0.001,0.001],"rotation":[-0.5,0.5,-0.4999999999999999,0.5000000000000001],"name":"Object 6","mesh":0},{"translation":[0.3202326056233075,0.22524793315006314,-0.09492021334693457],"scale":[1,1,1],"rotation":[-0.17953782359125353,0.7499424695426596,0.22624602825048584,0.595117800924534],"name":"Camera","camera":0}],"materials":[{"pbrMetallicRoughness":{"baseColorFactor":[1,1,1,1],"baseColorTexture":{"index":0,"extensions":{"KHR_texture_transform":{"offset":[0,0],"scale":[3,3]}},"texCoord":0},"metallicFactor":0,"roughnessFactor":0.2},"name":"African Black Wood","emissiveFactor":[0,0,0],"alphaMode":"OPAQUE","doubleSided":false}],"textures":[{"sampler":0,"source":0}],"images":[{"uri":"e5c65d01-76e4-422f-b3a5-819b992a4443.jpg","mimeType":"image/jpeg"}],"samplers":[{"wrapS":10497,"wrapT":10497}],"meshes":[{"primitives":[{"mode":4,"attributes":{"POSITION":1,"NORMAL":2,"TEXCOORD_0":3},"material":0,"indices":0}]}],"accessors":[{"bufferView":0,"byteOffset":0,"componentType":5125,"count":10560,"type":"SCALAR"},{"bufferView":1,"byteOffset":0,"componentType":5126,"count":10560,"max":[23.810752868652344,23.810752868652344,4],"min":[-23.810752868652344,-23.810752868652344,0],"type":"VEC3"},{"bufferView":2,"byteOffset":0,"componentType":5126,"count":10560,"type":"VEC3"},{"bufferView":3,"byteOffset":0,"componentType":5126,"count":10560,"type":"VEC2"}],"bufferViews":[{"buffer":0,"byteOffset":0,"byteLength":42240,"target":34963},{"buffer":0,"byteOffset":42240,"byteLength":126720,"target":34962},{"buffer":0,"byteOffset":168960,"byteLength":126720,"target":34962},{"buffer":0,"byteOffset":295680,"byteLength":84480,"target":34962}],"cameras":[{"name":"Camera","type":"perspective","extras":{"targetDistance":0.4096896177921156},"perspective":{"aspectRatio":1.7026378896882495,"yfov":0.6108652381980153,"zfar":35.53175865196559,"znear":0.002594048914280679}}],"scene":0,"scenes":[{"nodes":[0,1],"name":"Ring17"}],"extensionsUsed":["KHR_texture_transform"],"buffers":[{"byteLength":380160,"uri":"Ring17.bin"}]}