{"asset":{"version":"2.0","generator":"VECTARY"},"nodes":[{"translation":[0.005199999809265137,0,0],"scale":[0.0018184499481147859,0.0018184499481147859,0.0013638374610860894],"rotation":[-0.7071067811865475,0,0,0.7071067811865476],"name":"Buffer Layer 1","mesh":0},{"translation":[0.005,-0.02,-3.552713678800501e-18],"scale":[0.001,0.001,0.001],"rotation":[-0.7071067811865475,0,0,0.7071067811865476],"name":"Sphere","mesh":1},{"translation":[-0.2576268006554985,0.3057394425908599,0.5071628482896385],"scale":[1,1,1],"rotation":[-0.19944340430543717,-0.20407318834914692,-0.042508477670623934,0.9574808048217978],"name":"Camera","camera":0}],"materials":[{"pbrMetallicRoughness":{"baseColorFactor":[1,1,1,1],"baseColorTexture":{"index":0,"extensions":{"KHR_texture_transform":{"offset":[0,0],"scale":[1,1]}},"texCoord":0},"metallicFactor":0,"roughnessFactor":1},"name":"Light Blue to White 1","emissiveFactor":[0.06,0.06,0.06],"alphaMode":"OPAQUE","doubleSided":false},{"pbrMetallicRoughness":{"baseColorFactor":[0,0.45907989242416014,0.7969165429079781,0.5],"baseColorTexture":{"index":1,"extensions":{"KHR_texture_transform":{"offset":[0,0],"scale":[1,1]}},"texCoord":0},"metallicFactor":0,"roughnessFactor":0},"name":"Light Blue To Blue","emissiveFactor":[0,0,0],"alphaMode":"BLEND","doubleSided":false}],"textures":[{"sampler":0,"source":0},{"sampler":0,"source":1}],"images":[{"uri":"f9c44c09-d62a-457b-93c8-fedabd3b4e49.jpg","mimeType":"image/jpeg"},{"uri":"2b6634d1-0ae3-444c-b63a-521f9b981d13.jpg","mimeType":"image/jpeg"}],"samplers":[{"wrapS":10497,"wrapT":10497}],"meshes":[{"primitives":[{"mode":4,"attributes":{"POSITION":1,"NORMAL":2,"TEXCOORD_0":3},"material":0,"indices":0}]},{"primitives":[{"mode":4,"attributes":{"POSITION":5,"NORMAL":6,"TEXCOORD_0":7},"material":1,"indices":4}]}],"accessors":[{"bufferView":0,"byteOffset":0,"componentType":5125,"count":72,"type":"SCALAR"},{"bufferView":1,"byteOffset":0,"componentType":5126,"count":72,"max":[19.554141998291016,2.104670524597168,51.17020034790039],"min":[-19.554141998291016,-2.104670524597168,0],"type":"VEC3"},{"bufferView":2,"byteOffset":0,"componentType":5126,"count":72,"type":"VEC3"},{"bufferView":3,"byteOffset":0,"componentType":5126,"count":72,"type":"VEC2"},{"bufferView":4,"byteOffset":0,"componentType":5125,"count":1518,"type":"SCALAR"},{"bufferView":5,"byteOffset":0,"componentType":5126,"count":1518,"max":[53.94602584838867,53.94602584838867,107.90666198730469],"min":[-53.94602584838867,-53.94602584838867,0],"type":"VEC3"},{"bufferView":6,"byteOffset":0,"componentType":5126,"count":1518,"type":"VEC3"},{"bufferView":7,"byteOffset":0,"componentType":5126,"count":1518,"type":"VEC2"}],"bufferViews":[{"buffer":0,"byteOffset":0,"byteLength":288,"target":34963},{"buffer":0,"byteOffset":288,"byteLength":864,"target":34962},{"buffer":0,"byteOffset":1152,"byteLength":864,"target":34962},{"buffer":0,"byteOffset":2016,"byteLength":576,"target":34962},{"buffer":0,"byteOffset":2592,"byteLength":6072,"target":34963},{"buffer":0,"byteOffset":8664,"byteLength":18216,"target":34962},{"buffer":0,"byteOffset":26880,"byteLength":18216,"target":34962},{"buffer":0,"byteOffset":45096,"byteLength":12144,"target":34962}],"cameras":[{"name":"Camera","type":"perspective","extras":{"targetDistance":0.6926656274990758},"perspective":{"aspectRatio":1.608154020385051,"yfov":0.6108652381980153,"zfar":46.285922437208605,"znear":0.003697765723818777}}],"scene":0,"scenes":[{"nodes":[0,1,2],"name":"FITOKEN"}],"extensionsUsed":["KHR_texture_transform"],"buffers":[{"byteLength":57240,"uri":"FITOKEN.bin"}]}