{"asset":{"version":"2.0","generator":"VECTARY"},"nodes":[{"translation":[0,0,0],"scale":[0.001,0.001,0.001],"rotation":[-0.5,0.5,-0.4999999999999999,0.5000000000000001],"name":"Object 4","mesh":0},{"translation":[0.4827390055029541,0.27813667381985024,-0.09649771161547552],"scale":[1,1,1],"rotation":[-0.14550692174388663,0.795503886639614,0.21078014981870913,0.5491566538869298],"name":"Camera","camera":0}],"materials":[{"pbrMetallicRoughness":{"baseColorFactor":[1,0,0.8912620368134188,1],"baseColorTexture":{"index":0,"extensions":{"KHR_texture_transform":{"offset":[0,0],"scale":[1,1]}},"texCoord":0},"metallicFactor":1,"roughnessFactor":1},"name":"Glowing Gradient","emissiveTexture":{"index":1,"extensions":{"KHR_texture_transform":{"offset":[0,0],"scale":[1,1]}},"texCoord":0},"emissiveFactor":[0.32,0.32,0.32],"alphaMode":"OPAQUE","doubleSided":false}],"textures":[{"sampler":0,"source":0},{"sampler":0,"source":1}],"images":[{"uri":"b705c798-4474-41f8-8592-1a8ee60d7c25.jpg","mimeType":"image/jpeg"},{"uri":"shared:fd0fb5df-f894-4b36-a456-69c92557ec73:16a2d9e2-a203-42b1-bcbf-6eb7f74fba2f.png","mimeType":"image/png"}],"samplers":[{"wrapS":10497,"wrapT":10497}],"meshes":[{"primitives":[{"mode":4,"attributes":{"POSITION":1,"NORMAL":2,"TEXCOORD_0":3},"material":0,"indices":0}]}],"accessors":[{"bufferView":0,"byteOffset":0,"componentType":5125,"count":10440,"type":"SCALAR"},{"bufferView":1,"byteOffset":0,"componentType":5126,"count":10440,"max":[42.66093063354492,42.66093063354492,6],"min":[-42.66093063354492,-42.66093063354492,0],"type":"VEC3"},{"bufferView":2,"byteOffset":0,"componentType":5126,"count":10440,"type":"VEC3"},{"bufferView":3,"byteOffset":0,"componentType":5126,"count":10440,"type":"VEC2"}],"bufferViews":[{"buffer":0,"byteOffset":0,"byteLength":41760,"target":34963},{"buffer":0,"byteOffset":41760,"byteLength":125280,"target":34962},{"buffer":0,"byteOffset":167040,"byteLength":125280,"target":34962},{"buffer":0,"byteOffset":292320,"byteLength":83520,"target":34962}],"cameras":[{"name":"Camera","type":"perspective","extras":{"targetDistance":0.5255254791517023},"perspective":{"aspectRatio":1.608154020385051,"yfov":0.6108652381980153,"zfar":39.933961603925084,"znear":0.003045853954087048}}],"scene":0,"scenes":[{"nodes":[0,1],"name":"RingFive"}],"extensionsUsed":["KHR_texture_transform"],"buffers":[{"byteLength":375840,"uri":"RingFive.bin"}]}