{"asset":{"version":"2.0","generator":"VECTARY"},"nodes":[{"translation":[0,-1.8184657819656813e-18,-3.944304526105059e-34],"scale":[0.00045000000000000004,0.00045000000000000004,0.00045000000000000004],"rotation":[-0.7071067811865475,0,0,0.7071067811865476],"name":"Blackhole","children":[1]},{"translation":[0.0000152587890625,0,57.00720294097475],"scale":[1,1,1],"rotation":[0,0,0,1],"name":"RootNode (model correction matrix)","children":[2]},{"translation":[0,0,0],"scale":[1,1,1],"rotation":[0.7071067811865475,0,0,0.7071067811865476],"name":"415c209837844e7b91255101a7c3eb67.fbx","children":[3]},{"translation":[0,0,0],"scale":[1,1,1],"rotation":[0,0,0,1],"name":"Group","children":[4]},{"translation":[0,0,0],"scale":[1,1,1],"rotation":[0,0,0,1],"name":"RootNode","children":[5]},{"translation":[0,0,0],"scale":[1,1.0000001343588654,1.0000001343588654],"rotation":[-0.7071068286895689,0,0,0.7071067336835231],"name":"Blackhole_ring","children":[6]},{"translation":[0,0,0],"scale":[1,1,1],"rotation":[0,0,0,1],"name":"Blackhole_ring_Blackhole_ring_0","mesh":0},{"translation":[-0.5825192458100903,0.3845289427713417,0.15034899544725203],"scale":[1,1,1],"rotation":[-0.22178191162310096,-0.5878149133010965,-0.1718077577821953,0.7587941128814075],"name":"Camera","camera":0}],"materials":[{"pbrMetallicRoughness":{"baseColorFactor":[1,1,1,1],"baseColorTexture":{"index":0,"extensions":{"KHR_texture_transform":{"offset":[0,0],"scale":[1,1],"rotation":0}},"texCoord":0},"metallicFactor":0,"roughnessFactor":1},"name":"Material 1","emissiveTexture":{"index":1,"extensions":{"KHR_texture_transform":{"offset":[0,0],"scale":[1,1],"rotation":0}},"texCoord":0},"emissiveFactor":[1,1,1],"alphaMode":"BLEND","doubleSided":true}],"textures":[{"sampler":0,"source":0},{"sampler":0,"source":1}],"images":[{"uri":"a4d9698f-475e-4811-86ef-040012f61c25.png","mimeType":"image/png"},{"uri":"ed0d3fb6-d2ec-48ec-a6bb-a7e57ae8e38f.jpg","mimeType":"image/jpeg"}],"samplers":[{"wrapS":10497,"wrapT":10497}],"meshes":[{"primitives":[{"mode":4,"attributes":{"POSITION":1,"NORMAL":2,"TEXCOORD_0":3},"material":0,"indices":0}]}],"accessors":[{"bufferView":0,"byteOffset":0,"componentType":5125,"count":48,"type":"SCALAR"},{"bufferView":1,"byteOffset":0,"componentType":5126,"count":48,"max":[195.3686981201172,195.36871337890625,0],"min":[-195.3687286376953,-195.36871337890625,0],"type":"VEC3"},{"bufferView":2,"byteOffset":0,"componentType":5126,"count":48,"type":"VEC3"},{"bufferView":3,"byteOffset":0,"componentType":5126,"count":48,"type":"VEC2"}],"bufferViews":[{"buffer":0,"byteOffset":0,"byteLength":192,"target":34963},{"buffer":0,"byteOffset":192,"byteLength":576,"target":34962},{"buffer":0,"byteOffset":768,"byteLength":576,"target":34962},{"buffer":0,"byteOffset":1344,"byteLength":384,"target":34962}],"cameras":[{"name":"Camera","type":"perspective","extras":{"targetDistance":0.714},"perspective":{"aspectRatio":1.5905245346869712,"yfov":0.6108652381980153,"zfar":47.0967096709671,"znear":0.003780978097809781}}],"scene":0,"scenes":[{"nodes":[0,7],"name":"NewBlackHoleRing"}],"extensionsUsed":["KHR_texture_transform"],"buffers":[{"byteLength":1728,"uri":"NewBlackHoleRing.bin"}]}