{"asset":{"version":"2.0","generator":"VECTARY"},"nodes":[{"translation":[0,-0.015,-2.6645352591003758e-18],"scale":[0.001,0.001,0.001],"rotation":[-0.7071067811865475,0,0,0.7071067811865476],"name":"Object 7","mesh":0},{"translation":[0.3202326056233075,0.22524793315006314,-0.09492021334693457],"scale":[1,1,1],"rotation":[-0.17953782359125353,0.7499424695426596,0.22624602825048584,0.595117800924534],"name":"Camera","camera":0}],"materials":[{"pbrMetallicRoughness":{"baseColorFactor":[0.3111804990579844,0.3111804990579844,0.3111804990579844,1],"baseColorTexture":{"index":0,"extensions":{"KHR_texture_transform":{"offset":[0,0],"scale":[1,1]}},"texCoord":0},"metallicRoughnessTexture":{"index":2,"extensions":{"KHR_texture_transform":{"offset":[0,0],"scale":[1,1]}},"texCoord":0},"metallicFactor":0,"roughnessFactor":1},"name":"African Black Wood","normalTexture":{"index":1,"scale":0.52,"extensions":{"KHR_texture_transform":{"offset":[0,0],"scale":[1,1]}},"texCoord":0},"emissiveFactor":[0,0,0],"alphaMode":"OPAQUE","doubleSided":false}],"textures":[{"sampler":0,"source":0},{"sampler":0,"source":1},{"sampler":0,"source":2}],"images":[{"uri":"061f23ca-f54c-4907-9824-45d97128d346.jpg","mimeType":"image/jpeg"},{"uri":"shared:0f3a284f-3e91-40f6-98a3-3ce942ef2f19:aab2d9d7-a57f-43ca-aef6-72b7882ec2f0.jpg","mimeType":"image/jpeg"},{"uri":"f5899ee8-00aa-46b0-b66c-5aefd1ef3ef8.jpg","mimeType":"image/jpeg"}],"samplers":[{"wrapS":10497,"wrapT":10497}],"meshes":[{"primitives":[{"mode":4,"attributes":{"POSITION":1,"NORMAL":2,"TEXCOORD_0":3},"material":0,"indices":0}]}],"accessors":[{"bufferView":0,"byteOffset":0,"componentType":5125,"count":59400,"type":"SCALAR"},{"bufferView":1,"byteOffset":0,"componentType":5126,"count":59400,"max":[16.057619094848633,16.057619094848633,32.115238189697266],"min":[-16.057619094848633,-16.057619094848633,0],"type":"VEC3"},{"bufferView":2,"byteOffset":0,"componentType":5126,"count":59400,"type":"VEC3"},{"bufferView":3,"byteOffset":0,"componentType":5126,"count":59400,"type":"VEC2"}],"bufferViews":[{"buffer":0,"byteOffset":0,"byteLength":237600,"target":34963},{"buffer":0,"byteOffset":237600,"byteLength":712800,"target":34962},{"buffer":0,"byteOffset":950400,"byteLength":712800,"target":34962},{"buffer":0,"byteOffset":1663200,"byteLength":475200,"target":34962}],"cameras":[{"name":"Camera","type":"perspective","extras":{"targetDistance":0.4096896177921156},"perspective":{"aspectRatio":1.7026378896882495,"yfov":0.6108652381980153,"zfar":35.53175865196559,"znear":0.002594048914280679}}],"scene":0,"scenes":[{"nodes":[0,1],"name":"Blackhole"}],"extensionsUsed":["KHR_texture_transform"],"buffers":[{"byteLength":2138400,"uri":"Blackhole.bin"}]}