{"asset":{"version":"2.0","generator":"VECTARY"},"nodes":[{"translation":[0,-1.8184657819656813e-18,-3.944304526105059e-34],"scale":[0.00045000000000000004,0.00045000000000000004,0.00045000000000000004],"rotation":[-0.7071067811865475,0,0,0.7071067811865476],"name":"Blackhole","children":[1]},{"translation":[0.0000152587890625,0,57.00720294097475],"scale":[1,1,1],"rotation":[0,0,0,1],"name":"RootNode (model correction matrix)","children":[2]},{"translation":[0,0,0],"scale":[1,1,1],"rotation":[0.7071067811865475,0,0,0.7071067811865476],"name":"415c209837844e7b91255101a7c3eb67.fbx","children":[3]},{"translation":[0,0,0],"scale":[1,1,1],"rotation":[0,0,0,1],"name":"Group","children":[4]},{"translation":[0,0,0],"scale":[1,1,1],"rotation":[0,0,0,1],"name":"RootNode","children":[5,7,9,11,13]},{"translation":[0,0,0],"scale":[0.9679999947547913,0.9680001248141723,0.9680001248141723],"rotation":[-0.7071068286895689,0,0,0.7071067336835231],"name":"Blackhole_core","children":[6]},{"translation":[0,0,0],"scale":[1,1,1],"rotation":[0,0,0,1],"name":"Blackhole_core_Blackhole_core_0","mesh":0},{"translation":[0,0,0],"scale":[0.9573858976364136,0.9573860262696967,0.9573860262696967],"rotation":[-0.7071068286895689,0,0,0.7071067336835231],"name":"Blackhole_skin_002","children":[8]},{"translation":[0,0,0],"scale":[1,1,1],"rotation":[0,0,0,1],"name":"Blackhole_skin_002_Blackhole_core_0","mesh":1},{"translation":[0,0,0],"scale":[1,1.0000001343588654,1.0000001343588654],"rotation":[-0.7071068286895689,0,0,0.7071067336835231],"name":"Blackhole_core001","children":[10]},{"translation":[0,0,0],"scale":[1,1,1],"rotation":[0,0,0,1],"name":"Blackhole_core001_Blackhole_core_0","mesh":2},{"translation":[0,0,0],"scale":[0.9281910216606456,0.9281909073331603,0.9281909073331605],"rotation":[0.21263110601255442,0.6743797061162663,0.6743797244549081,-0.2126311322028343],"name":"Blackhole_skin_011","children":[12]},{"translation":[0,0,0],"scale":[1,1,1],"rotation":[0,0,0,1],"name":"Blackhole_skin_011_Blackhole_core_0","mesh":3},{"translation":[0,0,0],"scale":[0.8558670277257443,0.8558670080277437,0.8558670080277437],"rotation":[-0.3535533641996602,0.6123724368402456,0.6123724509341536,0.3535533723367823],"name":"Blackhole_skin_012","children":[14]},{"translation":[0,0,0],"scale":[1,1,1],"rotation":[0,0,0,1],"name":"Blackhole_skin_012_Blackhole_skin_inner_0","mesh":4},{"translation":[-0.05835941641319505,0.10591967468373599,0.16757449942542135],"scale":[1,1,1],"rotation":[-0.25041107206399665,-0.1302786192334892,-0.0340275118446218,0.9587303608398138],"name":"Camera","camera":0}],"materials":[{"pbrMetallicRoughness":{"baseColorFactor":[0,0,0,1],"metallicFactor":1,"roughnessFactor":1},"name":"Material","emissiveFactor":[0,0,0],"alphaMode":"OPAQUE","doubleSided":false},{"pbrMetallicRoughness":{"baseColorFactor":[1,1,1,1],"metallicFactor":0,"roughnessFactor":1},"name":"Material 3","emissiveTexture":{"index":0,"extensions":{"KHR_texture_transform":{"offset":[0,0],"scale":[1,1],"rotation":0}},"texCoord":0},"emissiveFactor":[1,1,1],"alphaMode":"OPAQUE","doubleSided":false}],"meshes":[{"primitives":[{"mode":4,"attributes":{"POSITION":1,"NORMAL":2,"TEXCOORD_0":3},"material":0,"indices":0}]},{"primitives":[{"mode":4,"attributes":{"POSITION":5,"NORMAL":6,"TEXCOORD_0":7},"material":0,"indices":4}]},{"primitives":[{"mode":4,"attributes":{"POSITION":9,"NORMAL":10,"TEXCOORD_0":11},"material":0,"indices":8}]},{"primitives":[{"mode":4,"attributes":{"POSITION":13,"NORMAL":14,"TEXCOORD_0":15},"material":0,"indices":12}]},{"primitives":[{"mode":4,"attributes":{"POSITION":17,"NORMAL":18,"TEXCOORD_0":19},"material":1,"indices":16}]}],"accessors":[{"bufferView":0,"byteOffset":0,"componentType":5125,"count":11904,"type":"SCALAR"},{"bufferView":1,"byteOffset":0,"componentType":5126,"count":11904,"max":[46.400001525878906,46.400001525878906,46.400001525878906],"min":[-46.400001525878906,-46.400001525878906,-46.400001525878906],"type":"VEC3"},{"bufferView":2,"byteOffset":0,"componentType":5126,"count":11904,"type":"VEC3"},{"bufferView":3,"byteOffset":0,"componentType":5126,"count":11904,"type":"VEC2"},{"bufferView":4,"byteOffset":0,"componentType":5125,"count":51456,"type":"SCALAR"},{"bufferView":5,"byteOffset":0,"componentType":5126,"count":51456,"max":[63.93594741821289,63.935935974121094,59.422855377197266],"min":[-63.935951232910156,-63.93594741821289,-59.422855377197266],"type":"VEC3"},{"bufferView":6,"byteOffset":0,"componentType":5126,"count":51456,"type":"VEC3"},{"bufferView":7,"byteOffset":0,"componentType":5126,"count":51456,"type":"VEC2"},{"bufferView":8,"byteOffset":0,"componentType":5125,"count":48384,"type":"SCALAR"},{"bufferView":9,"byteOffset":0,"componentType":5126,"count":48384,"max":[49.391273498535156,49.39126968383789,48.71384048461914],"min":[-49.39126968383789,-49.39126968383789,-48.71384048461914],"type":"VEC3"},{"bufferView":10,"byteOffset":0,"componentType":5126,"count":48384,"type":"VEC3"},{"bufferView":11,"byteOffset":0,"componentType":5126,"count":48384,"type":"VEC2"},{"bufferView":12,"byteOffset":0,"componentType":5125,"count":51456,"type":"SCALAR"},{"bufferView":13,"byteOffset":0,"componentType":5126,"count":51456,"max":[64.24256896972656,64.24256896972656,59.422855377197266],"min":[-64.24256896972656,-64.2425537109375,-59.422855377197266],"type":"VEC3"},{"bufferView":14,"byteOffset":0,"componentType":5126,"count":51456,"type":"VEC3"},{"bufferView":15,"byteOffset":0,"componentType":5126,"count":51456,"type":"VEC2"},{"bufferView":16,"byteOffset":0,"componentType":5125,"count":48384,"type":"SCALAR"},{"bufferView":17,"byteOffset":0,"componentType":5126,"count":48384,"max":[62.209678649902344,62.20966339111328,59.422855377197266],"min":[-62.20967483520508,-62.209678649902344,-59.422855377197266],"type":"VEC3"},{"bufferView":18,"byteOffset":0,"componentType":5126,"count":48384,"type":"VEC3"},{"bufferView":19,"byteOffset":0,"componentType":5126,"count":48384,"type":"VEC2"}],"bufferViews":[{"buffer":0,"byteOffset":0,"byteLength":47616,"target":34963},{"buffer":0,"byteOffset":47616,"byteLength":142848,"target":34962},{"buffer":0,"byteOffset":190464,"byteLength":142848,"target":34962},{"buffer":0,"byteOffset":333312,"byteLength":95232,"target":34962},{"buffer":0,"byteOffset":428544,"byteLength":205824,"target":34963},{"buffer":0,"byteOffset":634368,"byteLength":617472,"target":34962},{"buffer":0,"byteOffset":1251840,"byteLength":617472,"target":34962},{"buffer":0,"byteOffset":1869312,"byteLength":411648,"target":34962},{"buffer":0,"byteOffset":2280960,"byteLength":193536,"target":34963},{"buffer":0,"byteOffset":2474496,"byteLength":580608,"target":34962},{"buffer":0,"byteOffset":3055104,"byteLength":580608,"target":34962},{"buffer":0,"byteOffset":3635712,"byteLength":387072,"target":34962},{"buffer":0,"byteOffset":4022784,"byteLength":205824,"target":34963},{"buffer":0,"byteOffset":4228608,"byteLength":617472,"target":34962},{"buffer":0,"byteOffset":4846080,"byteLength":617472,"target":34962},{"buffer":0,"byteOffset":5463552,"byteLength":411648,"target":34962},{"buffer":0,"byteOffset":5875200,"byteLength":193536,"target":34963},{"buffer":0,"byteOffset":6068736,"byteLength":580608,"target":34962},{"buffer":0,"byteOffset":6649344,"byteLength":580608,"target":34962},{"buffer":0,"byteOffset":7229952,"byteLength":387072,"target":34962}],"textures":[{"sampler":0,"source":0}],"images":[{"uri":"cf272b2a-2d32-4c2f-adbd-db19f0e2cfd0.jpg","mimeType":"image/jpeg"}],"samplers":[{"wrapS":10497,"wrapT":10497}],"cameras":[{"name":"Camera","type":"perspective","extras":{"targetDistance":0.20256017936499823},"perspective":{"aspectRatio":1.46875,"yfov":0.6108652381980153,"zfar":27.660052821152046,"znear":0.0017861633158550785}}],"scene":0,"scenes":[{"nodes":[0,15],"name":"simplerblackhole"}],"extensionsUsed":["KHR_texture_transform"],"buffers":[{"byteLength":7617024,"uri":"simplerblackhole.bin"}]}