{"asset":{"version":"2.0","generator":"VECTARY"},"nodes":[{"translation":[0.003,0.0005,1.1102230246251566e-19],"scale":[0.001,0.001,0.0011559094233948117],"rotation":[-0.7071067811865475,0,0,0.7071067811865476],"name":"Object 1","mesh":0},{"translation":[0.5082333526780662,0.23858895034298094,-0.08563052373978534],"scale":[1,1,1],"rotation":[-0.12566987755580789,0.7923802280855036,0.17442626975935915,0.5708906484013458],"name":"Camera","camera":0}],"materials":[{"pbrMetallicRoughness":{"baseColorFactor":[1,0,0.8912620368134188,1],"baseColorTexture":{"index":0,"extensions":{"KHR_texture_transform":{"offset":[0,0],"scale":[1,1]}},"texCoord":0},"metallicFactor":1,"roughnessFactor":1},"name":"Glowing Gradient","emissiveTexture":{"index":1,"extensions":{"KHR_texture_transform":{"offset":[0,0],"scale":[1,1]}},"texCoord":0},"emissiveFactor":[0.32,0.32,0.32],"alphaMode":"OPAQUE","doubleSided":false}],"textures":[{"sampler":0,"source":0},{"sampler":0,"source":1}],"images":[{"uri":"9ed10c21-f441-45f4-bef3-9ff3d284aacc.jpg","mimeType":"image/jpeg"},{"uri":"shared:fd0fb5df-f894-4b36-a456-69c92557ec73:16a2d9e2-a203-42b1-bcbf-6eb7f74fba2f.png","mimeType":"image/png"}],"samplers":[{"wrapS":10497,"wrapT":10497}],"meshes":[{"primitives":[{"mode":4,"attributes":{"POSITION":1,"NORMAL":2,"TEXCOORD_0":3},"material":0,"indices":0}]}],"accessors":[{"bufferView":0,"byteOffset":0,"componentType":5125,"count":10560,"type":"SCALAR"},{"bufferView":1,"byteOffset":0,"componentType":5126,"count":10560,"max":[72.42436981201172,72.42436981201172,6],"min":[-72.42436981201172,-72.42436981201172,0],"type":"VEC3"},{"bufferView":2,"byteOffset":0,"componentType":5126,"count":10560,"type":"VEC3"},{"bufferView":3,"byteOffset":0,"componentType":5126,"count":10560,"type":"VEC2"}],"bufferViews":[{"buffer":0,"byteOffset":0,"byteLength":42240,"target":34963},{"buffer":0,"byteOffset":42240,"byteLength":126720,"target":34962},{"buffer":0,"byteOffset":168960,"byteLength":126720,"target":34962},{"buffer":0,"byteOffset":295680,"byteLength":84480,"target":34962}],"cameras":[{"name":"Camera","type":"perspective","extras":{"targetDistance":0.5255254791517023},"perspective":{"aspectRatio":1.608154020385051,"yfov":0.6108652381980153,"zfar":39.933961603925084,"znear":0.003045853954087048}}],"scene":0,"scenes":[{"nodes":[0,1],"name":"RingTwo"}],"extensionsUsed":["KHR_texture_transform"],"buffers":[{"byteLength":380160,"uri":"RingTwo.bin"}]}